<svg xmlns="http://www.w3.org/2000/svg" width="20" height="20" viewBox="0 0 20 20" fill="none">
  <path d="M9.99992 1.25C7.23008 1.25 4.99992 3.48016 4.99992 6.25V7.08333C4.08903 7.08333 3.33325 7.83911 3.33325 8.75V17.0833C3.33325 17.9942 4.08903 18.75 4.99992 18.75H14.9999C15.9108 18.75 16.6666 17.9942 16.6666 17.0833V8.75C16.6666 7.83911 15.9108 7.08333 14.9999 7.08333V6.25C14.9999 3.48016 12.7698 1.25 9.99992 1.25ZM9.99992 2.91667C11.8967 2.91667 13.3333 4.35317 13.3333 6.25V7.08333H6.66659V6.25C6.66659 4.35317 8.10309 2.91667 9.99992 2.91667ZM4.99992 8.75H14.9999V17.0833H4.99992V8.75ZM9.99992 11.25C9.08325 11.25 8.33325 12 8.33325 12.9167C8.33325 13.8333 9.08325 14.5833 9.99992 14.5833C10.9166 14.5833 11.6666 13.8333 11.6666 12.9167C11.6666 12 10.9166 11.25 9.99992 11.25Z" fill="#5EDD91"/>
</svg>