<svg width="48" height="48" viewBox="0 0 48 48" fill="none" xmlns="http://www.w3.org/2000/svg">
<path id="icon_plus" d="M35.184 0C43.344 0 48 4.608 48 12.792V35.208C48 43.344 43.368 48 35.208 48H12.792C4.608 48 0 43.344 0 35.208V12.792C0 4.608 4.608 0 12.792 0H35.184ZM23.976 13.224C22.872 13.224 21.984 14.112 21.984 15.216V21.984H15.192C14.664 21.984 14.16 22.2 13.776 22.56C13.416 22.944 13.2 23.4456 13.2 23.976C13.2 25.08 14.088 25.968 15.192 25.992H21.984V32.784C21.984 33.888 22.872 34.776 23.976 34.776C25.08 34.776 25.968 33.888 25.968 32.784V25.992H32.784C33.888 25.968 34.776 25.08 34.776 23.976C34.776 22.872 33.888 21.984 32.784 21.984H25.968V15.216C25.968 14.112 25.08 13.224 23.976 13.224Z" fill="#E4E7ED"/>
</svg>
