<svg width="122" height="49" viewBox="0 0 122 49" fill="none" xmlns="http://www.w3.org/2000/svg">
<g filter="url(#filter0_d_303_678)">
<g filter="url(#filter1_d_303_678)">
<path d="M11.5075 10.84C12.1475 9.8 13.0675 8.96 14.2675 8.32C15.4675 7.68 16.8408 7.36 18.3875 7.36C20.2275 7.36 21.8942 7.82667 23.3875 8.76C24.8808 9.69333 26.0542 11.0267 26.9075 12.76C27.7875 14.4933 28.2275 16.5067 28.2275 18.8C28.2275 21.0933 27.7875 23.12 26.9075 24.88C26.0542 26.6133 24.8808 27.96 23.3875 28.92C21.8942 29.8533 20.2275 30.32 18.3875 30.32C16.8142 30.32 15.4408 30.0133 14.2675 29.4C13.0942 28.76 12.1742 27.92 11.5075 26.88V30H4.6675V0.4H11.5075V10.84ZM21.2675 18.8C21.2675 17.0933 20.7875 15.76 19.8275 14.8C18.8942 13.8133 17.7342 13.32 16.3475 13.32C14.9875 13.32 13.8275 13.8133 12.8675 14.8C11.9342 15.7867 11.4675 17.1333 11.4675 18.84C11.4675 20.5467 11.9342 21.8933 12.8675 22.88C13.8275 23.8667 14.9875 24.36 16.3475 24.36C17.7075 24.36 18.8675 23.8667 19.8275 22.88C20.7875 21.8667 21.2675 20.5067 21.2675 18.8ZM52.8559 18.48C52.8559 19.12 52.8159 19.7867 52.7359 20.48H37.2559C37.3626 21.8667 37.8026 22.9333 38.5759 23.68C39.3759 24.4 40.3493 24.76 41.4959 24.76C43.2026 24.76 44.3893 24.04 45.0559 22.6H52.3359C51.9626 24.0667 51.2826 25.3867 50.2959 26.56C49.3359 27.7333 48.1226 28.6533 46.6559 29.32C45.1893 29.9867 43.5493 30.32 41.7359 30.32C39.5493 30.32 37.6026 29.8533 35.8959 28.92C34.1893 27.9867 32.8559 26.6533 31.8959 24.92C30.9359 23.1867 30.4559 21.16 30.4559 18.84C30.4559 16.52 30.9226 14.4933 31.8559 12.76C32.8159 11.0267 34.1493 9.69333 35.8559 8.76C37.5626 7.82667 39.5226 7.36 41.7359 7.36C43.8959 7.36 45.8159 7.81333 47.4959 8.72C49.1759 9.62667 50.4826 10.92 51.4159 12.6C52.3759 14.28 52.8559 16.24 52.8559 18.48ZM45.8559 16.68C45.8559 15.5067 45.4559 14.5733 44.6559 13.88C43.8559 13.1867 42.8559 12.84 41.6559 12.84C40.5093 12.84 39.5359 13.1733 38.7359 13.84C37.9626 14.5067 37.4826 15.4533 37.2959 16.68H45.8559ZM68.9044 24.2V30H65.4244C62.9444 30 61.011 29.4 59.6244 28.2C58.2377 26.9733 57.5444 24.9867 57.5444 22.24V13.36H54.8244V7.68H57.5444V2.24H64.3844V7.68H68.8644V13.36H64.3844V22.32C64.3844 22.9867 64.5444 23.4667 64.8644 23.76C65.1844 24.0533 65.7177 24.2 66.4644 24.2H68.9044ZM81.7944 30.32C79.8477 30.32 78.1144 29.9867 76.5944 29.32C75.0744 28.6533 73.8744 27.7467 72.9944 26.6C72.1144 25.4267 71.621 24.12 71.5144 22.68H78.2744C78.3544 23.4533 78.7144 24.08 79.3544 24.56C79.9944 25.04 80.781 25.28 81.7144 25.28C82.5677 25.28 83.221 25.12 83.6744 24.8C84.1544 24.4533 84.3944 24.0133 84.3944 23.48C84.3944 22.84 84.061 22.3733 83.3944 22.08C82.7277 21.76 81.6477 21.4133 80.1544 21.04C78.5544 20.6667 77.221 20.28 76.1544 19.88C75.0877 19.4533 74.1677 18.8 73.3944 17.92C72.621 17.0133 72.2344 15.8 72.2344 14.28C72.2344 13 72.581 11.84 73.2744 10.8C73.9944 9.73333 75.0344 8.89333 76.3944 8.28C77.781 7.66666 79.421 7.36 81.3144 7.36C84.1144 7.36 86.3144 8.05333 87.9144 9.44C89.541 10.8267 90.4744 12.6667 90.7144 14.96H84.3944C84.2877 14.1867 83.941 13.5733 83.3544 13.12C82.7944 12.6667 82.0477 12.44 81.1144 12.44C80.3144 12.44 79.701 12.6 79.2744 12.92C78.8477 13.2133 78.6344 13.6267 78.6344 14.16C78.6344 14.8 78.9677 15.28 79.6344 15.6C80.3277 15.92 81.3944 16.24 82.8344 16.56C84.4877 16.9867 85.8344 17.4133 86.8744 17.84C87.9144 18.24 88.821 18.9067 89.5944 19.84C90.3944 20.7467 90.8077 21.9733 90.8344 23.52C90.8344 24.8267 90.461 26 89.7144 27.04C88.9944 28.0533 87.941 28.8533 86.5544 29.44C85.1944 30.0267 83.6077 30.32 81.7944 30.32ZM117.819 7.68L103.819 40.6H96.4591L101.579 29.24L92.4991 7.68H100.139L105.299 21.64L110.419 7.68H117.819Z" fill="#36D3CA"/>
<path d="M11.5075 10.84C12.1475 9.8 13.0675 8.96 14.2675 8.32C15.4675 7.68 16.8408 7.36 18.3875 7.36C20.2275 7.36 21.8942 7.82667 23.3875 8.76C24.8808 9.69333 26.0542 11.0267 26.9075 12.76C27.7875 14.4933 28.2275 16.5067 28.2275 18.8C28.2275 21.0933 27.7875 23.12 26.9075 24.88C26.0542 26.6133 24.8808 27.96 23.3875 28.92C21.8942 29.8533 20.2275 30.32 18.3875 30.32C16.8142 30.32 15.4408 30.0133 14.2675 29.4C13.0942 28.76 12.1742 27.92 11.5075 26.88V30H4.6675V0.4H11.5075V10.84ZM21.2675 18.8C21.2675 17.0933 20.7875 15.76 19.8275 14.8C18.8942 13.8133 17.7342 13.32 16.3475 13.32C14.9875 13.32 13.8275 13.8133 12.8675 14.8C11.9342 15.7867 11.4675 17.1333 11.4675 18.84C11.4675 20.5467 11.9342 21.8933 12.8675 22.88C13.8275 23.8667 14.9875 24.36 16.3475 24.36C17.7075 24.36 18.8675 23.8667 19.8275 22.88C20.7875 21.8667 21.2675 20.5067 21.2675 18.8ZM52.8559 18.48C52.8559 19.12 52.8159 19.7867 52.7359 20.48H37.2559C37.3626 21.8667 37.8026 22.9333 38.5759 23.68C39.3759 24.4 40.3493 24.76 41.4959 24.76C43.2026 24.76 44.3893 24.04 45.0559 22.6H52.3359C51.9626 24.0667 51.2826 25.3867 50.2959 26.56C49.3359 27.7333 48.1226 28.6533 46.6559 29.32C45.1893 29.9867 43.5493 30.32 41.7359 30.32C39.5493 30.32 37.6026 29.8533 35.8959 28.92C34.1893 27.9867 32.8559 26.6533 31.8959 24.92C30.9359 23.1867 30.4559 21.16 30.4559 18.84C30.4559 16.52 30.9226 14.4933 31.8559 12.76C32.8159 11.0267 34.1493 9.69333 35.8559 8.76C37.5626 7.82667 39.5226 7.36 41.7359 7.36C43.8959 7.36 45.8159 7.81333 47.4959 8.72C49.1759 9.62667 50.4826 10.92 51.4159 12.6C52.3759 14.28 52.8559 16.24 52.8559 18.48ZM45.8559 16.68C45.8559 15.5067 45.4559 14.5733 44.6559 13.88C43.8559 13.1867 42.8559 12.84 41.6559 12.84C40.5093 12.84 39.5359 13.1733 38.7359 13.84C37.9626 14.5067 37.4826 15.4533 37.2959 16.68H45.8559ZM68.9044 24.2V30H65.4244C62.9444 30 61.011 29.4 59.6244 28.2C58.2377 26.9733 57.5444 24.9867 57.5444 22.24V13.36H54.8244V7.68H57.5444V2.24H64.3844V7.68H68.8644V13.36H64.3844V22.32C64.3844 22.9867 64.5444 23.4667 64.8644 23.76C65.1844 24.0533 65.7177 24.2 66.4644 24.2H68.9044ZM81.7944 30.32C79.8477 30.32 78.1144 29.9867 76.5944 29.32C75.0744 28.6533 73.8744 27.7467 72.9944 26.6C72.1144 25.4267 71.621 24.12 71.5144 22.68H78.2744C78.3544 23.4533 78.7144 24.08 79.3544 24.56C79.9944 25.04 80.781 25.28 81.7144 25.28C82.5677 25.28 83.221 25.12 83.6744 24.8C84.1544 24.4533 84.3944 24.0133 84.3944 23.48C84.3944 22.84 84.061 22.3733 83.3944 22.08C82.7277 21.76 81.6477 21.4133 80.1544 21.04C78.5544 20.6667 77.221 20.28 76.1544 19.88C75.0877 19.4533 74.1677 18.8 73.3944 17.92C72.621 17.0133 72.2344 15.8 72.2344 14.28C72.2344 13 72.581 11.84 73.2744 10.8C73.9944 9.73333 75.0344 8.89333 76.3944 8.28C77.781 7.66666 79.421 7.36 81.3144 7.36C84.1144 7.36 86.3144 8.05333 87.9144 9.44C89.541 10.8267 90.4744 12.6667 90.7144 14.96H84.3944C84.2877 14.1867 83.941 13.5733 83.3544 13.12C82.7944 12.6667 82.0477 12.44 81.1144 12.44C80.3144 12.44 79.701 12.6 79.2744 12.92C78.8477 13.2133 78.6344 13.6267 78.6344 14.16C78.6344 14.8 78.9677 15.28 79.6344 15.6C80.3277 15.92 81.3944 16.24 82.8344 16.56C84.4877 16.9867 85.8344 17.4133 86.8744 17.84C87.9144 18.24 88.821 18.9067 89.5944 19.84C90.3944 20.7467 90.8077 21.9733 90.8344 23.52C90.8344 24.8267 90.461 26 89.7144 27.04C88.9944 28.0533 87.941 28.8533 86.5544 29.44C85.1944 30.0267 83.6077 30.32 81.7944 30.32ZM117.819 7.68L103.819 40.6H96.4591L101.579 29.24L92.4991 7.68H100.139L105.299 21.64L110.419 7.68H117.819Z" fill="url(#paint0_linear_303_678)" fill-opacity="0.4"/>
<path d="M11.5075 10.84H10.5075V14.373L12.3592 11.3641L11.5075 10.84ZM14.2675 8.32L13.7969 7.43764L14.2675 8.32ZM23.3875 8.76L22.8575 9.608L23.3875 8.76ZM26.9075 12.76L26.0103 13.2017L26.0158 13.2127L26.9075 12.76ZM26.9075 24.88L26.0131 24.4328L26.0103 24.4383L26.9075 24.88ZM23.3875 28.92L23.9175 29.7681L23.9283 29.7612L23.3875 28.92ZM14.2675 29.4L13.7886 30.2779L13.7964 30.2821L13.8042 30.2862L14.2675 29.4ZM11.5075 26.88L12.3494 26.3403L10.5075 23.467V26.88H11.5075ZM11.5075 30V31H12.5075V30H11.5075ZM4.6675 30H3.6675V31H4.6675V30ZM4.6675 0.4V-0.6H3.6675V0.4H4.6675ZM11.5075 0.4H12.5075V-0.6H11.5075V0.4ZM19.8275 14.8L19.101 15.4872L19.1106 15.4973L19.1204 15.5071L19.8275 14.8ZM12.8675 14.8L12.1507 14.1026L12.141 14.1128L12.8675 14.8ZM12.8675 22.88L12.141 23.5673L12.1508 23.5774L12.8675 22.88ZM19.8275 22.88L20.5443 23.5774L20.5535 23.5677L19.8275 22.88ZM12.3592 11.3641C12.8959 10.4919 13.6764 9.76858 14.7381 9.20235L13.7969 7.43764C12.4586 8.15141 11.3991 9.10811 10.6558 10.3159L12.3592 11.3641ZM14.7381 9.20235C15.7744 8.64964 16.9822 8.36 18.3875 8.36V6.36C16.6995 6.36 15.1606 6.71035 13.7969 7.43764L14.7381 9.20235ZM18.3875 8.36C20.0489 8.36 21.5304 8.77857 22.8575 9.608L23.9175 7.912C22.2579 6.87476 20.4061 6.36 18.3875 6.36V8.36ZM22.8575 9.608C24.1779 10.4332 25.2309 11.6185 26.0103 13.2017L27.8047 12.3183C26.8774 10.4348 25.5838 8.95343 23.9175 7.912L22.8575 9.608ZM26.0158 13.2127C26.8129 14.7826 27.2275 16.6358 27.2275 18.8H29.2275C29.2275 16.3775 28.7621 14.204 27.7992 12.3073L26.0158 13.2127ZM27.2275 18.8C27.2275 20.9637 26.813 22.8329 26.0131 24.4328L27.8019 25.3272C28.762 23.4071 29.2275 21.2229 29.2275 18.8H27.2275ZM26.0103 24.4383C25.23 26.0235 24.1738 27.2257 22.8467 28.0788L23.9283 29.7612C25.5879 28.6943 26.8784 27.2032 27.8047 25.3217L26.0103 24.4383ZM22.8575 28.072C21.5304 28.9014 20.0489 29.32 18.3875 29.32V31.32C20.4061 31.32 22.2579 30.8052 23.9175 29.768L22.8575 28.072ZM18.3875 29.32C16.9452 29.32 15.7365 29.0395 14.7308 28.5138L13.8042 30.2862C15.1452 30.9872 16.6831 31.32 18.3875 31.32V29.32ZM14.7464 28.5221C13.7081 27.9558 12.918 27.2274 12.3494 26.3403L10.6656 27.4197C11.4303 28.6126 12.4802 29.5642 13.7886 30.2779L14.7464 28.5221ZM10.5075 26.88V30H12.5075V26.88H10.5075ZM11.5075 29H4.6675V31H11.5075V29ZM5.6675 30V0.4H3.6675V30H5.6675ZM4.6675 1.4H11.5075V-0.6H4.6675V1.4ZM10.5075 0.4V10.84H12.5075V0.4H10.5075ZM22.2675 18.8C22.2675 16.9 21.7275 15.2858 20.5346 14.0929L19.1204 15.5071C19.8475 16.2342 20.2675 17.2867 20.2675 18.8H22.2675ZM20.554 14.1128C19.4273 12.9218 18.0025 12.32 16.3475 12.32V14.32C17.4658 14.32 18.361 14.7049 19.101 15.4872L20.554 14.1128ZM16.3475 12.32C14.7138 12.32 13.2964 12.9252 12.1508 14.1026L13.5842 15.4974C14.3586 14.7015 15.2612 14.32 16.3475 14.32V12.32ZM12.141 14.1128C10.99 15.3296 10.4675 16.9463 10.4675 18.84H12.4675C12.4675 17.3204 12.8783 16.2437 13.594 15.4872L12.141 14.1128ZM10.4675 18.84C10.4675 20.7337 10.99 22.3504 12.141 23.5672L13.594 22.1928C12.8783 21.4363 12.4675 20.3596 12.4675 18.84H10.4675ZM12.1508 23.5774C13.2964 24.7548 14.7138 25.36 16.3475 25.36V23.36C15.2612 23.36 14.3586 22.9785 13.5842 22.1826L12.1508 23.5774ZM16.3475 25.36C17.9812 25.36 19.3986 24.7548 20.5442 23.5774L19.1108 22.1826C18.3364 22.9785 17.4338 23.36 16.3475 23.36V25.36ZM20.5535 23.5677C21.7268 22.3292 22.2675 20.7024 22.2675 18.8H20.2675C20.2675 20.3109 19.8482 21.4041 19.1015 22.1923L20.5535 23.5677ZM52.7359 20.48V21.48H53.6272L53.7293 20.5946L52.7359 20.48ZM37.2559 20.48V19.48H36.1761L36.2589 20.5567L37.2559 20.48ZM38.5759 23.68L37.8813 24.3994L37.8939 24.4116L37.907 24.4233L38.5759 23.68ZM45.0559 22.6V21.6H44.4169L44.1485 22.1799L45.0559 22.6ZM52.3359 22.6L53.305 22.8467L53.6224 21.6H52.3359V22.6ZM50.2959 26.56L49.5305 25.9163L49.522 25.9268L50.2959 26.56ZM46.6559 29.32L47.0697 30.2304L46.6559 29.32ZM35.8959 28.92L35.4161 29.7974L35.8959 28.92ZM31.8959 24.92L32.7707 24.4355L31.8959 24.92ZM31.8559 12.76L30.9811 12.2755L30.9755 12.2859L31.8559 12.76ZM35.8559 8.76L36.3358 9.63737L35.8559 8.76ZM47.4959 8.72L47.021 9.60002H47.021L47.4959 8.72ZM51.4159 12.6L50.5417 13.0857L50.5477 13.0961L51.4159 12.6ZM45.8559 16.68V17.68H46.8559V16.68H45.8559ZM44.6559 13.88L45.3109 13.1243L44.6559 13.88ZM38.7359 13.84L38.0958 13.0718L38.0893 13.0771L38.083 13.0826L38.7359 13.84ZM37.2959 16.68L36.3073 16.5296L36.1323 17.68H37.2959V16.68ZM51.8559 18.48C51.8559 19.0784 51.8185 19.7067 51.7425 20.3654L53.7293 20.5946C53.8133 19.8666 53.8559 19.1616 53.8559 18.48H51.8559ZM52.7359 19.48H37.2559V21.48H52.7359V19.48ZM36.2589 20.5567C36.3787 22.1139 36.8853 23.4377 37.8813 24.3994L39.2705 22.9606C38.72 22.429 38.3465 21.6195 38.253 20.4033L36.2589 20.5567ZM37.907 24.4233C38.9033 25.32 40.1199 25.76 41.4959 25.76V23.76C40.5787 23.76 39.8486 23.48 39.2449 22.9367L37.907 24.4233ZM41.4959 25.76C42.4903 25.76 43.4026 25.5494 44.1847 25.0749C44.9714 24.5976 45.5589 23.8938 45.9634 23.0201L44.1485 22.1799C43.8863 22.7462 43.5472 23.1224 43.1472 23.3651C42.7426 23.6106 42.2083 23.76 41.4959 23.76V25.76ZM45.0559 23.6H52.3359V21.6H45.0559V23.6ZM51.3668 22.3533C51.0312 23.6721 50.4216 24.8568 49.5306 25.9164L51.0613 27.2036C52.1436 25.9165 52.8941 24.4613 53.305 22.8467L51.3668 22.3533ZM49.522 25.9268C48.6652 26.9739 47.578 27.8024 46.2421 28.4096L47.0697 30.2304C48.6672 29.5043 50.0066 28.4928 51.0699 27.1932L49.522 25.9268ZM46.2421 28.4096C44.9208 29.0102 43.4245 29.32 41.7359 29.32V31.32C43.6741 31.32 45.4577 30.9631 47.0697 30.2304L46.2421 28.4096ZM41.7359 29.32C39.6958 29.32 37.9178 28.8859 36.3758 28.0426L35.4161 29.7974C37.2874 30.8207 39.4027 31.32 41.7359 31.32V29.32ZM36.3758 28.0426C34.8385 27.202 33.6407 26.0064 32.7707 24.4355L31.0211 25.4045C32.0711 27.3003 33.54 28.7714 35.4161 29.7974L36.3758 28.0426ZM32.7707 24.4355C31.9059 22.874 31.4559 21.0196 31.4559 18.84H29.4559C29.4559 21.3004 29.966 23.4994 31.0211 25.4045L32.7707 24.4355ZM31.4559 18.84C31.4559 16.6559 31.8944 14.7977 32.7364 13.2341L30.9755 12.2859C29.9508 14.1889 29.4559 16.3841 29.4559 18.84H31.4559ZM32.7307 13.2445C33.6007 11.6736 34.7985 10.478 36.3358 9.63737L35.3761 7.88263C33.5 8.90863 32.0311 10.3797 30.9811 12.2755L32.7307 13.2445ZM36.3358 9.63737C37.876 8.79502 39.6669 8.36 41.7359 8.36V6.36C39.3783 6.36 37.2492 6.8583 35.3761 7.88263L36.3358 9.63737ZM41.7359 8.36C43.7522 8.36 45.5052 8.78196 47.021 9.60002L47.9709 7.83998C46.1267 6.8447 44.0397 6.36 41.7359 6.36V8.36ZM47.021 9.60002C48.5318 10.4154 49.7005 11.5713 50.5418 13.0856L52.2901 12.1144C51.2647 10.2687 49.8201 8.83795 47.9709 7.83998L47.021 9.60002ZM50.5477 13.0961C51.4086 14.6027 51.8559 16.3863 51.8559 18.48H53.8559C53.8559 16.0937 53.3433 13.9573 52.2842 12.1039L50.5477 13.0961ZM46.8559 16.68C46.8559 15.2519 46.3553 14.0295 45.3109 13.1243L44.001 14.6357C44.5565 15.1171 44.8559 15.7614 44.8559 16.68H46.8559ZM45.3109 13.1243C44.3047 12.2523 43.0623 11.84 41.6559 11.84V13.84C42.6496 13.84 43.4071 14.121 44.001 14.6357L45.3109 13.1243ZM41.6559 11.84C40.3006 11.84 39.094 12.2399 38.0958 13.0718L39.3761 14.6082C39.9779 14.1068 40.7179 13.84 41.6559 13.84V11.84ZM38.083 13.0826C37.0922 13.9368 36.5218 15.1199 36.3073 16.5296L38.2846 16.8304C38.4434 15.7868 38.833 15.0766 39.3889 14.5974L38.083 13.0826ZM37.2959 17.68H45.8559V15.68H37.2959V17.68ZM68.9044 24.2H69.9044V23.2H68.9044V24.2ZM68.9044 30V31H69.9044V30H68.9044ZM59.6244 28.2L58.9618 28.949L58.97 28.9562L59.6244 28.2ZM57.5444 13.36H58.5444V12.36H57.5444V13.36ZM54.8244 13.36H53.8244V14.36H54.8244V13.36ZM54.8244 7.68V6.68H53.8244V7.68H54.8244ZM57.5444 7.68V8.68H58.5444V7.68H57.5444ZM57.5444 2.24V1.24H56.5444V2.24H57.5444ZM64.3844 2.24H65.3844V1.24H64.3844V2.24ZM64.3844 7.68H63.3844V8.68H64.3844V7.68ZM68.8644 7.68H69.8644V6.68H68.8644V7.68ZM68.8644 13.36V14.36H69.8644V13.36H68.8644ZM64.3844 13.36V12.36H63.3844V13.36H64.3844ZM64.8644 23.76L64.1887 24.4972L64.8644 23.76ZM67.9044 24.2V30H69.9044V24.2H67.9044ZM68.9044 29H65.4244V31H68.9044V29ZM65.4244 29C63.0995 29 61.4282 28.4386 60.2788 27.4438L58.97 28.9562C60.5939 30.3614 62.7893 31 65.4244 31V29ZM60.2869 27.451C59.2013 26.4906 58.5444 24.8404 58.5444 22.24H56.5444C56.5444 25.1329 57.2742 27.4561 58.9618 28.949L60.2869 27.451ZM58.5444 22.24V13.36H56.5444V22.24H58.5444ZM57.5444 12.36H54.8244V14.36H57.5444V12.36ZM55.8244 13.36V7.68H53.8244V13.36H55.8244ZM54.8244 8.68H57.5444V6.68H54.8244V8.68ZM58.5444 7.68V2.24H56.5444V7.68H58.5444ZM57.5444 3.24H64.3844V1.24H57.5444V3.24ZM63.3844 2.24V7.68H65.3844V2.24H63.3844ZM64.3844 8.68H68.8644V6.68H64.3844V8.68ZM67.8644 7.68V13.36H69.8644V7.68H67.8644ZM68.8644 12.36H64.3844V14.36H68.8644V12.36ZM63.3844 13.36V22.32H65.3844V13.36H63.3844ZM63.3844 22.32C63.3844 23.118 63.5731 23.9329 64.1887 24.4972L65.5401 23.0228C65.5156 23.0004 65.3844 22.8554 65.3844 22.32H63.3844ZM64.1887 24.4972C64.7868 25.0455 65.6334 25.2 66.4644 25.2V23.2C65.802 23.2 65.5819 23.0612 65.5401 23.0228L64.1887 24.4972ZM66.4644 25.2H68.9044V23.2H66.4644V25.2ZM76.5944 29.32L76.996 28.4042L76.5944 29.32ZM72.9944 26.6L72.1943 27.2L72.2011 27.2088L72.9944 26.6ZM71.5144 22.68V21.68H70.4376L70.5171 22.7539L71.5144 22.68ZM78.2744 22.68L79.2691 22.5771L79.1763 21.68H78.2744V22.68ZM79.3544 24.56L79.9544 23.76L79.3544 24.56ZM83.6744 24.8L84.2511 25.617L84.2599 25.6107L83.6744 24.8ZM83.3944 22.08L82.9616 22.9815L82.9765 22.9887L82.9916 22.9953L83.3944 22.08ZM80.1544 21.04L80.3969 20.0699L80.3893 20.0679L80.3816 20.0662L80.1544 21.04ZM76.1544 19.88L75.783 20.8085L75.7931 20.8125L75.8033 20.8163L76.1544 19.88ZM73.3944 17.92L72.6335 18.5689L72.6383 18.5746L72.6432 18.5801L73.3944 17.92ZM73.2744 10.8L72.4455 10.2405L72.4423 10.2453L73.2744 10.8ZM76.3944 8.28L75.9899 7.36544L75.9833 7.36841L76.3944 8.28ZM87.9144 9.44L87.2594 10.1957L87.2656 10.201L87.9144 9.44ZM90.7144 14.96V15.96H91.8245L91.7089 14.8559L90.7144 14.96ZM84.3944 14.96L83.4038 15.0966L83.5228 15.96H84.3944V14.96ZM83.3544 13.12L82.7252 13.8972L82.734 13.9044L82.7429 13.9113L83.3544 13.12ZM79.2744 12.92L79.8409 13.744L79.8579 13.7324L79.8744 13.72L79.2744 12.92ZM79.6344 15.6L79.2016 16.5015L79.2085 16.5048L79.2153 16.508L79.6344 15.6ZM82.8344 16.56L83.0843 15.5917L83.0678 15.5875L83.0513 15.5838L82.8344 16.56ZM86.8744 17.84L86.4948 18.7652L86.5051 18.7694L86.5154 18.7733L86.8744 17.84ZM89.5944 19.84L88.8244 20.478L88.8343 20.49L88.8445 20.5016L89.5944 19.84ZM90.8344 23.52H91.8344V23.5114L91.8342 23.5028L90.8344 23.52ZM89.7144 27.04L88.902 26.4568L88.8992 26.4608L89.7144 27.04ZM86.5544 29.44L86.1647 28.519L86.1583 28.5218L86.5544 29.44ZM81.7944 29.32C79.9624 29.32 78.3694 29.0066 76.996 28.4042L76.1927 30.2358C77.8593 30.9668 79.7331 31.32 81.7944 31.32V29.32ZM76.996 28.4042C75.6072 27.7951 74.5507 26.9855 73.7877 25.9912L72.2011 27.2088C73.198 28.5079 74.5415 29.5116 76.1927 30.2358L76.996 28.4042ZM73.7944 26C73.0272 24.977 72.604 23.8523 72.5116 22.6061L70.5171 22.7539C70.6381 24.3876 71.2016 25.8763 72.1944 27.2L73.7944 26ZM71.5144 23.68H78.2744V21.68H71.5144V23.68ZM77.2797 22.7829C77.3893 23.8424 77.8987 24.7183 78.7544 25.36L79.9544 23.76C79.53 23.4417 79.3195 23.0642 79.2691 22.5771L77.2797 22.7829ZM78.7544 25.36C79.5952 25.9906 80.6021 26.28 81.7144 26.28V24.28C80.96 24.28 80.3936 24.0894 79.9544 23.76L78.7544 25.36ZM81.7144 26.28C82.6704 26.28 83.5604 26.1045 84.2511 25.617L83.0977 23.983C82.8817 24.1355 82.465 24.28 81.7144 24.28V26.28ZM84.2599 25.6107C84.9669 25.1 85.3944 24.3734 85.3944 23.48H83.3944C83.3944 23.6533 83.3418 23.8066 83.0889 23.9893L84.2599 25.6107ZM85.3944 23.48C85.3944 22.9768 85.2598 22.4912 84.9581 22.0688C84.6623 21.6546 84.2512 21.3645 83.7971 21.1647L82.9916 22.9953C83.2042 23.0888 83.2931 23.1787 83.3306 23.2312C83.3623 23.2755 83.3944 23.3432 83.3944 23.48H85.3944ZM83.8271 21.1785C83.064 20.8122 81.9013 20.446 80.3969 20.0699L79.9118 22.0101C81.3941 22.3807 82.3914 22.7078 82.9616 22.9815L83.8271 21.1785ZM80.3816 20.0662C78.807 19.6988 77.5184 19.3235 76.5055 18.9437L75.8033 20.8163C76.9237 21.2365 78.3017 21.6346 79.9271 22.0138L80.3816 20.0662ZM76.5258 18.9515C75.608 18.5844 74.8173 18.0243 74.1455 17.2599L72.6432 18.5801C73.5182 19.5757 74.5674 20.3223 75.783 20.8085L76.5258 18.9515ZM74.1552 17.2711C73.5749 16.5907 73.2344 15.6293 73.2344 14.28H71.2344C71.2344 15.9707 71.6672 17.436 72.6335 18.5689L74.1552 17.2711ZM73.2344 14.28C73.2344 13.1924 73.5254 12.2263 74.1064 11.3547L72.4423 10.2453C71.6367 11.4537 71.2344 12.8076 71.2344 14.28H73.2344ZM74.1032 11.3595C74.7037 10.4698 75.5873 9.74097 76.8055 9.19159L75.9833 7.36841C74.4815 8.04569 73.285 8.99681 72.4455 10.2405L74.1032 11.3595ZM76.7989 9.19453C78.0306 8.64972 79.5268 8.36 81.3144 8.36V6.36C79.3153 6.36 77.5314 6.68361 75.9899 7.36546L76.7989 9.19453ZM81.3144 8.36C83.9525 8.36 85.893 9.01146 87.2594 10.1957L88.5693 8.68431C86.7357 7.09521 84.2763 6.36 81.3144 6.36V8.36ZM87.2656 10.201C88.6808 11.4074 89.5042 13.004 89.7198 15.0641L91.7089 14.8559C91.4445 12.3294 90.4013 10.246 88.5631 8.67899L87.2656 10.201ZM90.7144 13.96H84.3944V15.96H90.7144V13.96ZM85.385 14.8234C85.2446 13.8058 84.7716 12.9513 83.9658 12.3287L82.7429 13.9113C83.1105 14.1953 83.3308 14.5675 83.4038 15.0966L85.385 14.8234ZM83.9836 12.3428C83.1987 11.7074 82.2082 11.44 81.1144 11.44V13.44C81.8872 13.44 82.39 13.6259 82.7252 13.8972L83.9836 12.3428ZM81.1144 11.44C80.2008 11.44 79.3415 11.6197 78.6744 12.12L79.8744 13.72C80.0606 13.5803 80.4279 13.44 81.1144 13.44V11.44ZM78.7078 12.096C78.0002 12.5824 77.6344 13.3092 77.6344 14.16H79.6344C79.6344 13.9441 79.6952 13.8442 79.8409 13.744L78.7078 12.096ZM77.6344 14.16C77.6344 14.6636 77.769 15.147 78.063 15.5704C78.3513 15.9855 78.753 16.2862 79.2016 16.5015L80.0671 14.6985C79.8491 14.5938 79.7508 14.4945 79.7057 14.4296C79.6665 14.373 79.6344 14.2964 79.6344 14.16H77.6344ZM79.2153 16.508C80.0083 16.8739 81.1595 17.2122 82.6174 17.5362L83.0513 15.5838C81.6292 15.2678 80.6471 14.966 80.0534 14.692L79.2153 16.508ZM82.5845 17.5283C84.2138 17.9487 85.5127 18.3622 86.4948 18.7652L87.2539 16.9148C86.1561 16.4644 84.7616 16.0246 83.0843 15.5917L82.5845 17.5283ZM86.5154 18.7733C87.3815 19.1065 88.1506 19.6648 88.8244 20.478L90.3644 19.202C89.4915 18.1485 88.4473 17.3735 87.2334 16.9067L86.5154 18.7733ZM88.8445 20.5016C89.4475 21.1849 89.8108 22.1603 89.8345 23.5372L91.8342 23.5028C91.8046 21.7864 91.3413 20.3084 90.3442 19.1784L88.8445 20.5016ZM89.8344 23.52C89.8344 24.622 89.524 25.5905 88.9021 26.4568L90.5267 27.6232C91.3981 26.4095 91.8344 25.0313 91.8344 23.52H89.8344ZM88.8992 26.4608C88.3073 27.2938 87.4168 27.9893 86.1647 28.519L86.944 30.361C88.4652 29.7174 89.6814 28.8129 90.5296 27.6192L88.8992 26.4608ZM86.1583 28.5218C84.9481 29.0438 83.5013 29.32 81.7944 29.32V31.32C83.7142 31.32 85.4407 31.0095 86.9505 30.3582L86.1583 28.5218ZM117.819 7.68L118.739 8.07135L119.331 6.68H117.819V7.68ZM103.819 40.6V41.6H104.48L104.739 40.9914L103.819 40.6ZM96.4591 40.6L95.5474 40.1891L94.9115 41.6H96.4591V40.6ZM101.579 29.24L102.491 29.6509L102.67 29.2535L102.501 28.8519L101.579 29.24ZM92.4991 7.68V6.68H90.9928L91.5775 8.06813L92.4991 7.68ZM100.139 7.68L101.077 7.3333L100.836 6.68H100.139V7.68ZM105.299 21.64L104.361 21.9867L105.303 24.5342L106.238 21.9843L105.299 21.64ZM110.419 7.68V6.68H109.721L109.48 7.33566L110.419 7.68ZM116.899 7.28864L102.899 40.2086L104.739 40.9914L118.739 8.07135L116.899 7.28864ZM103.819 39.6H96.4591V41.6H103.819V39.6ZM97.3707 41.0109L102.491 29.6509L100.667 28.8291L95.5474 40.1891L97.3707 41.0109ZM102.501 28.8519L93.4207 7.29187L91.5775 8.06813L100.657 29.6281L102.501 28.8519ZM92.4991 8.68H100.139V6.68H92.4991V8.68ZM99.2011 8.0267L104.361 21.9867L106.237 21.2933L101.077 7.3333L99.2011 8.0267ZM106.238 21.9843L111.358 8.02433L109.48 7.33566L104.36 21.2957L106.238 21.9843ZM110.419 8.68H117.819V6.68H110.419V8.68Z" fill="black"/>
</g>
</g>
<defs>
<filter id="filter0_d_303_678" x="-2" y="0" width="124" height="48.6001" filterUnits="userSpaceOnUse" color-interpolation-filters="sRGB">
<feFlood flood-opacity="0" result="BackgroundImageFix"/>
<feColorMatrix in="SourceAlpha" type="matrix" values="0 0 0 0 0 0 0 0 0 0 0 0 0 0 0 0 0 0 127 0" result="hardAlpha"/>
<feOffset dy="4"/>
<feGaussianBlur stdDeviation="2"/>
<feComposite in2="hardAlpha" operator="out"/>
<feColorMatrix type="matrix" values="0 0 0 0 0 0 0 0 0 0 0 0 0 0 0 0 0 0 0.25 0"/>
<feBlend mode="normal" in2="BackgroundImageFix" result="effect1_dropShadow_303_678"/>
<feBlend mode="normal" in="SourceGraphic" in2="effect1_dropShadow_303_678" result="shape"/>
</filter>
<filter id="filter1_d_303_678" x="0.667511" y="0.399902" width="121.152" height="48.2002" filterUnits="userSpaceOnUse" color-interpolation-filters="sRGB">
<feFlood flood-opacity="0" result="BackgroundImageFix"/>
<feColorMatrix in="SourceAlpha" type="matrix" values="0 0 0 0 0 0 0 0 0 0 0 0 0 0 0 0 0 0 127 0" result="hardAlpha"/>
<feOffset dy="4"/>
<feGaussianBlur stdDeviation="2"/>
<feComposite in2="hardAlpha" operator="out"/>
<feColorMatrix type="matrix" values="0 0 0 0 0 0 0 0 0 0 0 0 0 0 0 0 0 0 0.25 0"/>
<feBlend mode="normal" in2="BackgroundImageFix" result="effect1_dropShadow_303_678"/>
<feBlend mode="normal" in="SourceGraphic" in2="effect1_dropShadow_303_678" result="shape"/>
</filter>
<linearGradient id="paint0_linear_303_678" x1="118" y1="0.999976" x2="1.72292" y2="17.1094" gradientUnits="userSpaceOnUse">
<stop stop-color="#F6FA36"/>
<stop offset="1" stop-color="#F6FA36" stop-opacity="0"/>
</linearGradient>
</defs>
</svg>
