
<svg width="113" height="40" viewBox="0 0 113 40" fill="none" xmlns="http://www.w3.org/2000/svg">
<g id="logo" clip-path="url(#clip0_479_10046)">
<g id="betsy">
<g id="Vector">
<path d="M113.152 7.28027L99.1515 40.2003H91.7915L96.9115 28.8403L87.8315 7.28027H95.4715L100.632 21.2403L105.752 7.28027H113.152Z" fill="#36D3CA"/>
<path d="M113.152 7.28027L99.1515 40.2003H91.7915L96.9115 28.8403L87.8315 7.28027H95.4715L100.632 21.2403L105.752 7.28027H113.152Z" fill="url(#paint0_linear_479_10046)" fill-opacity="0.4"/>
</g>
<g id="Vector_2">
<path d="M77.1269 29.92C75.1802 29.92 73.4469 29.5866 71.9269 28.92C70.4069 28.2533 69.2069 27.3466 68.3269 26.2C67.4469 25.0266 66.9535 23.72 66.8469 22.28H73.6069C73.6869 23.0533 74.0469 23.68 74.6869 24.16C75.3269 24.64 76.1135 24.88 77.0469 24.88C77.9002 24.88 78.5535 24.72 79.0069 24.4C79.4869 24.0533 79.7269 23.6133 79.7269 23.08C79.7269 22.44 79.3935 21.9733 78.7269 21.68C78.0602 21.36 76.9802 21.0133 75.4869 20.64C73.8869 20.2666 72.5535 19.88 71.4869 19.48C70.4202 19.0533 69.5002 18.4 68.7269 17.52C67.9535 16.6133 67.5669 15.4 67.5669 13.88C67.5669 12.6 67.9135 11.44 68.6069 10.4C69.3269 9.33329 70.3669 8.49329 71.7269 7.87996C73.1135 7.26663 74.7535 6.95996 76.6469 6.95996C79.4469 6.95996 81.6469 7.65329 83.2469 9.03996C84.8735 10.4266 85.8069 12.2666 86.0469 14.56H79.7269C79.6202 13.7866 79.2735 13.1733 78.6869 12.72C78.1269 12.2666 77.3802 12.04 76.4469 12.04C75.6469 12.04 75.0335 12.2 74.6069 12.52C74.1802 12.8133 73.9669 13.2266 73.9669 13.76C73.9669 14.4 74.3002 14.88 74.9669 15.2C75.6602 15.52 76.7269 15.84 78.1669 16.16C79.8202 16.5866 81.1669 17.0133 82.2069 17.44C83.2469 17.84 84.1535 18.5066 84.9269 19.44C85.7269 20.3466 86.1402 21.5733 86.1669 23.12C86.1669 24.4266 85.7935 25.6 85.0469 26.64C84.3269 27.6533 83.2735 28.4533 81.8869 29.04C80.5269 29.6266 78.9402 29.92 77.1269 29.92Z" fill="#36D3CA"/>
<path d="M77.1269 29.92C75.1802 29.92 73.4469 29.5866 71.9269 28.92C70.4069 28.2533 69.2069 27.3466 68.3269 26.2C67.4469 25.0266 66.9535 23.72 66.8469 22.28H73.6069C73.6869 23.0533 74.0469 23.68 74.6869 24.16C75.3269 24.64 76.1135 24.88 77.0469 24.88C77.9002 24.88 78.5535 24.72 79.0069 24.4C79.4869 24.0533 79.7269 23.6133 79.7269 23.08C79.7269 22.44 79.3935 21.9733 78.7269 21.68C78.0602 21.36 76.9802 21.0133 75.4869 20.64C73.8869 20.2666 72.5535 19.88 71.4869 19.48C70.4202 19.0533 69.5002 18.4 68.7269 17.52C67.9535 16.6133 67.5669 15.4 67.5669 13.88C67.5669 12.6 67.9135 11.44 68.6069 10.4C69.3269 9.33329 70.3669 8.49329 71.7269 7.87996C73.1135 7.26663 74.7535 6.95996 76.6469 6.95996C79.4469 6.95996 81.6469 7.65329 83.2469 9.03996C84.8735 10.4266 85.8069 12.2666 86.0469 14.56H79.7269C79.6202 13.7866 79.2735 13.1733 78.6869 12.72C78.1269 12.2666 77.3802 12.04 76.4469 12.04C75.6469 12.04 75.0335 12.2 74.6069 12.52C74.1802 12.8133 73.9669 13.2266 73.9669 13.76C73.9669 14.4 74.3002 14.88 74.9669 15.2C75.6602 15.52 76.7269 15.84 78.1669 16.16C79.8202 16.5866 81.1669 17.0133 82.2069 17.44C83.2469 17.84 84.1535 18.5066 84.9269 19.44C85.7269 20.3466 86.1402 21.5733 86.1669 23.12C86.1669 24.4266 85.7935 25.6 85.0469 26.64C84.3269 27.6533 83.2735 28.4533 81.8869 29.04C80.5269 29.6266 78.9402 29.92 77.1269 29.92Z" fill="url(#paint1_linear_479_10046)" fill-opacity="0.4"/>
</g>
<g id="Vector_3">
<path d="M64.2369 23.8003V29.6003H60.7569C58.2769 29.6003 56.3435 29.0003 54.9569 27.8003C53.5702 26.5737 52.8769 24.587 52.8769 21.8403V12.9603H50.1569V7.28033H52.8769V1.84033H59.7169V7.28033H64.1969V12.9603H59.7169V21.9203C59.7169 22.587 59.8769 23.067 60.1969 23.3603C60.5169 23.6537 61.0502 23.8003 61.7969 23.8003H64.2369Z" fill="#36D3CA"/>
<path d="M64.2369 23.8003V29.6003H60.7569C58.2769 29.6003 56.3435 29.0003 54.9569 27.8003C53.5702 26.5737 52.8769 24.587 52.8769 21.8403V12.9603H50.1569V7.28033H52.8769V1.84033H59.7169V7.28033H64.1969V12.9603H59.7169V21.9203C59.7169 22.587 59.8769 23.067 60.1969 23.3603C60.5169 23.6537 61.0502 23.8003 61.7969 23.8003H64.2369Z" fill="url(#paint2_linear_479_10046)" fill-opacity="0.4"/>
</g>
<g id="Vector_4">
<path d="M48.1884 18.08C48.1884 18.72 48.1484 19.3866 48.0684 20.08H32.5884C32.6951 21.4666 33.1351 22.5333 33.9084 23.28C34.7084 24 35.6818 24.36 36.8284 24.36C38.5351 24.36 39.7218 23.64 40.3884 22.2H47.6684C47.2951 23.6666 46.6151 24.9866 45.6284 26.16C44.6684 27.3333 43.4551 28.2533 41.9884 28.92C40.5218 29.5866 38.8818 29.92 37.0684 29.92C34.8818 29.92 32.9351 29.4533 31.2284 28.52C29.5218 27.5866 28.1884 26.2533 27.2284 24.52C26.2684 22.7866 25.7884 20.76 25.7884 18.44C25.7884 16.12 26.2551 14.0933 27.1884 12.36C28.1484 10.6266 29.4818 9.29329 31.1884 8.35996C32.8951 7.42663 34.8551 6.95996 37.0684 6.95996C39.2284 6.95996 41.1484 7.41329 42.8284 8.31996C44.5084 9.22663 45.8151 10.52 46.7484 12.2C47.7084 13.88 48.1884 15.84 48.1884 18.08ZM41.1884 16.28C41.1884 15.1066 40.7884 14.1733 39.9884 13.48C39.1884 12.7866 38.1884 12.44 36.9884 12.44C35.8418 12.44 34.8684 12.7733 34.0684 13.44C33.2951 14.1066 32.8151 15.0533 32.6284 16.28H41.1884Z" fill="#36D3CA"/>
<path d="M48.1884 18.08C48.1884 18.72 48.1484 19.3866 48.0684 20.08H32.5884C32.6951 21.4666 33.1351 22.5333 33.9084 23.28C34.7084 24 35.6818 24.36 36.8284 24.36C38.5351 24.36 39.7218 23.64 40.3884 22.2H47.6684C47.2951 23.6666 46.6151 24.9866 45.6284 26.16C44.6684 27.3333 43.4551 28.2533 41.9884 28.92C40.5218 29.5866 38.8818 29.92 37.0684 29.92C34.8818 29.92 32.9351 29.4533 31.2284 28.52C29.5218 27.5866 28.1884 26.2533 27.2284 24.52C26.2684 22.7866 25.7884 20.76 25.7884 18.44C25.7884 16.12 26.2551 14.0933 27.1884 12.36C28.1484 10.6266 29.4818 9.29329 31.1884 8.35996C32.8951 7.42663 34.8551 6.95996 37.0684 6.95996C39.2284 6.95996 41.1484 7.41329 42.8284 8.31996C44.5084 9.22663 45.8151 10.52 46.7484 12.2C47.7084 13.88 48.1884 15.84 48.1884 18.08ZM41.1884 16.28C41.1884 15.1066 40.7884 14.1733 39.9884 13.48C39.1884 12.7866 38.1884 12.44 36.9884 12.44C35.8418 12.44 34.8684 12.7733 34.0684 13.44C33.2951 14.1066 32.8151 15.0533 32.6284 16.28H41.1884Z" fill="url(#paint3_linear_479_10046)" fill-opacity="0.4"/>
</g>
<g id="Vector_5">
<path d="M6.84 10.44C7.48 9.4 8.4 8.56 9.6 7.92C10.8 7.28 12.1733 6.96 13.72 6.96C15.56 6.96 17.2267 7.42666 18.72 8.36C20.2133 9.29333 21.3867 10.6267 22.24 12.36C23.12 14.0933 23.56 16.1067 23.56 18.4C23.56 20.6933 23.12 22.72 22.24 24.48C21.3867 26.2133 20.2133 27.56 18.72 28.52C17.2267 29.4533 15.56 29.92 13.72 29.92C12.1467 29.92 10.7733 29.6133 9.6 29C8.42667 28.36 7.50667 27.52 6.84 26.48V29.6H0V0H6.84V10.44ZM16.6 18.4C16.6 16.6933 16.12 15.36 15.16 14.4C14.2267 13.4133 13.0667 12.92 11.68 12.92C10.32 12.92 9.16 13.4133 8.2 14.4C7.26667 15.3867 6.8 16.7333 6.8 18.44C6.8 20.1467 7.26667 21.4933 8.2 22.48C9.16 23.4667 10.32 23.96 11.68 23.96C13.04 23.96 14.2 23.4667 15.16 22.48C16.12 21.4667 16.6 20.1067 16.6 18.4Z" fill="#36D3CA"/>
<path d="M6.84 10.44C7.48 9.4 8.4 8.56 9.6 7.92C10.8 7.28 12.1733 6.96 13.72 6.96C15.56 6.96 17.2267 7.42666 18.72 8.36C20.2133 9.29333 21.3867 10.6267 22.24 12.36C23.12 14.0933 23.56 16.1067 23.56 18.4C23.56 20.6933 23.12 22.72 22.24 24.48C21.3867 26.2133 20.2133 27.56 18.72 28.52C17.2267 29.4533 15.56 29.92 13.72 29.92C12.1467 29.92 10.7733 29.6133 9.6 29C8.42667 28.36 7.50667 27.52 6.84 26.48V29.6H0V0H6.84V10.44ZM16.6 18.4C16.6 16.6933 16.12 15.36 15.16 14.4C14.2267 13.4133 13.0667 12.92 11.68 12.92C10.32 12.92 9.16 13.4133 8.2 14.4C7.26667 15.3867 6.8 16.7333 6.8 18.44C6.8 20.1467 7.26667 21.4933 8.2 22.48C9.16 23.4667 10.32 23.96 11.68 23.96C13.04 23.96 14.2 23.4667 15.16 22.48C16.12 21.4667 16.6 20.1067 16.6 18.4Z" fill="url(#paint4_linear_479_10046)" fill-opacity="0.4"/>
</g>
</g>
</g>
<defs>
<linearGradient id="paint0_linear_479_10046" x1="113.332" y1="0.600079" x2="-2.94459" y2="16.7095" gradientUnits="userSpaceOnUse">
<stop stop-color="#F6FA36"/>
<stop offset="1" stop-color="#F6FA36" stop-opacity="0"/>
</linearGradient>
<linearGradient id="paint1_linear_479_10046" x1="113.332" y1="0.600078" x2="-2.94459" y2="16.7095" gradientUnits="userSpaceOnUse">
<stop stop-color="#F6FA36"/>
<stop offset="1" stop-color="#F6FA36" stop-opacity="0"/>
</linearGradient>
<linearGradient id="paint2_linear_479_10046" x1="113.332" y1="0.600067" x2="-2.94458" y2="16.7095" gradientUnits="userSpaceOnUse">
<stop stop-color="#F6FA36"/>
<stop offset="1" stop-color="#F6FA36" stop-opacity="0"/>
</linearGradient>
<linearGradient id="paint3_linear_479_10046" x1="113.332" y1="0.600087" x2="-2.94458" y2="16.7095" gradientUnits="userSpaceOnUse">
<stop stop-color="#F6FA36"/>
<stop offset="1" stop-color="#F6FA36" stop-opacity="0"/>
</linearGradient>
<linearGradient id="paint4_linear_479_10046" x1="113.332" y1="0.600064" x2="-2.94458" y2="16.7095" gradientUnits="userSpaceOnUse">
<stop stop-color="#F6FA36"/>
<stop offset="1" stop-color="#F6FA36" stop-opacity="0"/>
</linearGradient>
<clipPath id="clip0_479_10046">
<rect width="113" height="40" fill="white"/>
</clipPath>
</defs>
</svg>
