<svg width="122" height="63" viewBox="0 0 122 63" fill="none" xmlns="http://www.w3.org/2000/svg">
<g filter="url(#filter0_d_18_2653)">
<g filter="url(#filter1_d_18_2653)">
<path d="M11.0075 24.84C11.6475 23.8 12.5675 22.96 13.7675 22.32C14.9675 21.68 16.3408 21.36 17.8875 21.36C19.7275 21.36 21.3942 21.8267 22.8875 22.76C24.3808 23.6933 25.5542 25.0267 26.4075 26.76C27.2875 28.4933 27.7275 30.5067 27.7275 32.8C27.7275 35.0933 27.2875 37.12 26.4075 38.88C25.5542 40.6133 24.3808 41.96 22.8875 42.92C21.3942 43.8533 19.7275 44.32 17.8875 44.32C16.3142 44.32 14.9408 44.0133 13.7675 43.4C12.5942 42.76 11.6742 41.92 11.0075 40.88V44H4.1675V14.4H11.0075V24.84ZM20.7675 32.8C20.7675 31.0933 20.2875 29.76 19.3275 28.8C18.3942 27.8133 17.2342 27.32 15.8475 27.32C14.4875 27.32 13.3275 27.8133 12.3675 28.8C11.4342 29.7867 10.9675 31.1333 10.9675 32.84C10.9675 34.5467 11.4342 35.8933 12.3675 36.88C13.3275 37.8667 14.4875 38.36 15.8475 38.36C17.2075 38.36 18.3675 37.8667 19.3275 36.88C20.2875 35.8667 20.7675 34.5067 20.7675 32.8ZM52.3559 32.48C52.3559 33.12 52.3159 33.7867 52.2359 34.48H36.7559C36.8626 35.8667 37.3026 36.9333 38.0759 37.68C38.8759 38.4 39.8493 38.76 40.9959 38.76C42.7026 38.76 43.8893 38.04 44.5559 36.6H51.8359C51.4626 38.0667 50.7826 39.3867 49.7959 40.56C48.8359 41.7333 47.6226 42.6533 46.1559 43.32C44.6893 43.9867 43.0493 44.32 41.2359 44.32C39.0493 44.32 37.1026 43.8533 35.3959 42.92C33.6893 41.9867 32.3559 40.6533 31.3959 38.92C30.4359 37.1867 29.9559 35.16 29.9559 32.84C29.9559 30.52 30.4226 28.4933 31.3559 26.76C32.3159 25.0267 33.6493 23.6933 35.3559 22.76C37.0626 21.8267 39.0226 21.36 41.2359 21.36C43.3959 21.36 45.3159 21.8133 46.9959 22.72C48.6759 23.6267 49.9826 24.92 50.9159 26.6C51.8759 28.28 52.3559 30.24 52.3559 32.48ZM45.3559 30.68C45.3559 29.5067 44.9559 28.5733 44.1559 27.88C43.3559 27.1867 42.3559 26.84 41.1559 26.84C40.0093 26.84 39.0359 27.1733 38.2359 27.84C37.4626 28.5067 36.9826 29.4533 36.7959 30.68H45.3559ZM68.4044 38.2V44H64.9244C62.4444 44 60.511 43.4 59.1244 42.2C57.7377 40.9733 57.0444 38.9867 57.0444 36.24V27.36H54.3244V21.68H57.0444V16.24H63.8844V21.68H68.3644V27.36H63.8844V36.32C63.8844 36.9867 64.0444 37.4667 64.3644 37.76C64.6844 38.0533 65.2177 38.2 65.9644 38.2H68.4044ZM81.2944 44.32C79.3477 44.32 77.6144 43.9867 76.0944 43.32C74.5744 42.6533 73.3744 41.7467 72.4944 40.6C71.6144 39.4267 71.121 38.12 71.0144 36.68H77.7744C77.8544 37.4533 78.2144 38.08 78.8544 38.56C79.4944 39.04 80.281 39.28 81.2144 39.28C82.0677 39.28 82.721 39.12 83.1744 38.8C83.6544 38.4533 83.8944 38.0133 83.8944 37.48C83.8944 36.84 83.561 36.3733 82.8944 36.08C82.2277 35.76 81.1477 35.4133 79.6544 35.04C78.0544 34.6667 76.721 34.28 75.6544 33.88C74.5877 33.4533 73.6677 32.8 72.8944 31.92C72.121 31.0133 71.7344 29.8 71.7344 28.28C71.7344 27 72.081 25.84 72.7744 24.8C73.4944 23.7333 74.5344 22.8933 75.8944 22.28C77.281 21.6667 78.921 21.36 80.8144 21.36C83.6144 21.36 85.8144 22.0533 87.4144 23.44C89.041 24.8267 89.9744 26.6667 90.2144 28.96H83.8944C83.7877 28.1867 83.441 27.5733 82.8544 27.12C82.2944 26.6667 81.5477 26.44 80.6144 26.44C79.8144 26.44 79.201 26.6 78.7744 26.92C78.3477 27.2133 78.1344 27.6267 78.1344 28.16C78.1344 28.8 78.4677 29.28 79.1344 29.6C79.8277 29.92 80.8944 30.24 82.3344 30.56C83.9877 30.9867 85.3344 31.4133 86.3744 31.84C87.4144 32.24 88.321 32.9067 89.0944 33.84C89.8944 34.7467 90.3077 35.9733 90.3344 37.52C90.3344 38.8267 89.961 40 89.2144 41.04C88.4944 42.0533 87.441 42.8533 86.0544 43.44C84.6944 44.0267 83.1077 44.32 81.2944 44.32ZM117.319 21.68L103.319 54.6H95.9591L101.079 43.24L91.9991 21.68H99.6391L104.799 35.64L109.919 21.68H117.319Z" fill="#36D3CA"/>
<path d="M11.0075 24.84C11.6475 23.8 12.5675 22.96 13.7675 22.32C14.9675 21.68 16.3408 21.36 17.8875 21.36C19.7275 21.36 21.3942 21.8267 22.8875 22.76C24.3808 23.6933 25.5542 25.0267 26.4075 26.76C27.2875 28.4933 27.7275 30.5067 27.7275 32.8C27.7275 35.0933 27.2875 37.12 26.4075 38.88C25.5542 40.6133 24.3808 41.96 22.8875 42.92C21.3942 43.8533 19.7275 44.32 17.8875 44.32C16.3142 44.32 14.9408 44.0133 13.7675 43.4C12.5942 42.76 11.6742 41.92 11.0075 40.88V44H4.1675V14.4H11.0075V24.84ZM20.7675 32.8C20.7675 31.0933 20.2875 29.76 19.3275 28.8C18.3942 27.8133 17.2342 27.32 15.8475 27.32C14.4875 27.32 13.3275 27.8133 12.3675 28.8C11.4342 29.7867 10.9675 31.1333 10.9675 32.84C10.9675 34.5467 11.4342 35.8933 12.3675 36.88C13.3275 37.8667 14.4875 38.36 15.8475 38.36C17.2075 38.36 18.3675 37.8667 19.3275 36.88C20.2875 35.8667 20.7675 34.5067 20.7675 32.8ZM52.3559 32.48C52.3559 33.12 52.3159 33.7867 52.2359 34.48H36.7559C36.8626 35.8667 37.3026 36.9333 38.0759 37.68C38.8759 38.4 39.8493 38.76 40.9959 38.76C42.7026 38.76 43.8893 38.04 44.5559 36.6H51.8359C51.4626 38.0667 50.7826 39.3867 49.7959 40.56C48.8359 41.7333 47.6226 42.6533 46.1559 43.32C44.6893 43.9867 43.0493 44.32 41.2359 44.32C39.0493 44.32 37.1026 43.8533 35.3959 42.92C33.6893 41.9867 32.3559 40.6533 31.3959 38.92C30.4359 37.1867 29.9559 35.16 29.9559 32.84C29.9559 30.52 30.4226 28.4933 31.3559 26.76C32.3159 25.0267 33.6493 23.6933 35.3559 22.76C37.0626 21.8267 39.0226 21.36 41.2359 21.36C43.3959 21.36 45.3159 21.8133 46.9959 22.72C48.6759 23.6267 49.9826 24.92 50.9159 26.6C51.8759 28.28 52.3559 30.24 52.3559 32.48ZM45.3559 30.68C45.3559 29.5067 44.9559 28.5733 44.1559 27.88C43.3559 27.1867 42.3559 26.84 41.1559 26.84C40.0093 26.84 39.0359 27.1733 38.2359 27.84C37.4626 28.5067 36.9826 29.4533 36.7959 30.68H45.3559ZM68.4044 38.2V44H64.9244C62.4444 44 60.511 43.4 59.1244 42.2C57.7377 40.9733 57.0444 38.9867 57.0444 36.24V27.36H54.3244V21.68H57.0444V16.24H63.8844V21.68H68.3644V27.36H63.8844V36.32C63.8844 36.9867 64.0444 37.4667 64.3644 37.76C64.6844 38.0533 65.2177 38.2 65.9644 38.2H68.4044ZM81.2944 44.32C79.3477 44.32 77.6144 43.9867 76.0944 43.32C74.5744 42.6533 73.3744 41.7467 72.4944 40.6C71.6144 39.4267 71.121 38.12 71.0144 36.68H77.7744C77.8544 37.4533 78.2144 38.08 78.8544 38.56C79.4944 39.04 80.281 39.28 81.2144 39.28C82.0677 39.28 82.721 39.12 83.1744 38.8C83.6544 38.4533 83.8944 38.0133 83.8944 37.48C83.8944 36.84 83.561 36.3733 82.8944 36.08C82.2277 35.76 81.1477 35.4133 79.6544 35.04C78.0544 34.6667 76.721 34.28 75.6544 33.88C74.5877 33.4533 73.6677 32.8 72.8944 31.92C72.121 31.0133 71.7344 29.8 71.7344 28.28C71.7344 27 72.081 25.84 72.7744 24.8C73.4944 23.7333 74.5344 22.8933 75.8944 22.28C77.281 21.6667 78.921 21.36 80.8144 21.36C83.6144 21.36 85.8144 22.0533 87.4144 23.44C89.041 24.8267 89.9744 26.6667 90.2144 28.96H83.8944C83.7877 28.1867 83.441 27.5733 82.8544 27.12C82.2944 26.6667 81.5477 26.44 80.6144 26.44C79.8144 26.44 79.201 26.6 78.7744 26.92C78.3477 27.2133 78.1344 27.6267 78.1344 28.16C78.1344 28.8 78.4677 29.28 79.1344 29.6C79.8277 29.92 80.8944 30.24 82.3344 30.56C83.9877 30.9867 85.3344 31.4133 86.3744 31.84C87.4144 32.24 88.321 32.9067 89.0944 33.84C89.8944 34.7467 90.3077 35.9733 90.3344 37.52C90.3344 38.8267 89.961 40 89.2144 41.04C88.4944 42.0533 87.441 42.8533 86.0544 43.44C84.6944 44.0267 83.1077 44.32 81.2944 44.32ZM117.319 21.68L103.319 54.6H95.9591L101.079 43.24L91.9991 21.68H99.6391L104.799 35.64L109.919 21.68H117.319Z" fill="url(#paint0_linear_18_2653)" fill-opacity="0.4"/>
<path d="M11.0075 24.84H10.0075V28.373L11.8592 25.3641L11.0075 24.84ZM13.7675 22.32L13.2969 21.4376L13.7675 22.32ZM22.8875 22.76L22.3575 23.608L22.8875 22.76ZM26.4075 26.76L25.5103 27.2017L25.5158 27.2127L26.4075 26.76ZM26.4075 38.88L25.5131 38.4328L25.5103 38.4383L26.4075 38.88ZM22.8875 42.92L23.4175 43.7681L23.4283 43.7612L22.8875 42.92ZM13.7675 43.4L13.2886 44.2779L13.2964 44.2821L13.3042 44.2862L13.7675 43.4ZM11.0075 40.88L11.8494 40.3403L10.0075 37.467V40.88H11.0075ZM11.0075 44V45H12.0075V44H11.0075ZM4.1675 44H3.1675V45H4.1675V44ZM4.1675 14.4V13.4H3.1675V14.4H4.1675ZM11.0075 14.4H12.0075V13.4H11.0075V14.4ZM19.3275 28.8L18.601 29.4872L18.6106 29.4973L18.6204 29.5071L19.3275 28.8ZM12.3675 28.8L11.6507 28.1026L11.641 28.1128L12.3675 28.8ZM12.3675 36.88L11.641 37.5673L11.6508 37.5774L12.3675 36.88ZM19.3275 36.88L20.0443 37.5774L20.0535 37.5677L19.3275 36.88ZM11.8592 25.3641C12.3959 24.4919 13.1764 23.7686 14.2381 23.2024L13.2969 21.4376C11.9586 22.1514 10.8991 23.1081 10.1558 24.3159L11.8592 25.3641ZM14.2381 23.2024C15.2744 22.6496 16.4822 22.36 17.8875 22.36V20.36C16.1995 20.36 14.6606 20.7104 13.2969 21.4376L14.2381 23.2024ZM17.8875 22.36C19.5489 22.36 21.0304 22.7786 22.3575 23.608L23.4175 21.912C21.7579 20.8748 19.9061 20.36 17.8875 20.36V22.36ZM22.3575 23.608C23.6779 24.4332 24.7309 25.6185 25.5103 27.2017L27.3047 26.3183C26.3774 24.4348 25.0838 22.9534 23.4175 21.912L22.3575 23.608ZM25.5158 27.2127C26.3129 28.7826 26.7275 30.6358 26.7275 32.8H28.7275C28.7275 30.3775 28.2621 28.204 27.2992 26.3073L25.5158 27.2127ZM26.7275 32.8C26.7275 34.9637 26.313 36.8329 25.5131 38.4328L27.3019 39.3272C28.262 37.4071 28.7275 35.2229 28.7275 32.8H26.7275ZM25.5103 38.4383C24.73 40.0235 23.6738 41.2257 22.3467 42.0788L23.4283 43.7612C25.0879 42.6943 26.3784 41.2032 27.3047 39.3217L25.5103 38.4383ZM22.3575 42.072C21.0304 42.9014 19.5489 43.32 17.8875 43.32V45.32C19.9061 45.32 21.7579 44.8052 23.4175 43.768L22.3575 42.072ZM17.8875 43.32C16.4452 43.32 15.2365 43.0395 14.2308 42.5138L13.3042 44.2862C14.6452 44.9872 16.1831 45.32 17.8875 45.32V43.32ZM14.2464 42.5221C13.2081 41.9558 12.418 41.2274 11.8494 40.3403L10.1656 41.4197C10.9303 42.6126 11.9802 43.5642 13.2886 44.2779L14.2464 42.5221ZM10.0075 40.88V44H12.0075V40.88H10.0075ZM11.0075 43H4.1675V45H11.0075V43ZM5.1675 44V14.4H3.1675V44H5.1675ZM4.1675 15.4H11.0075V13.4H4.1675V15.4ZM10.0075 14.4V24.84H12.0075V14.4H10.0075ZM21.7675 32.8C21.7675 30.9 21.2275 29.2858 20.0346 28.0929L18.6204 29.5071C19.3475 30.2342 19.7675 31.2867 19.7675 32.8H21.7675ZM20.054 28.1128C18.9273 26.9218 17.5025 26.32 15.8475 26.32V28.32C16.9658 28.32 17.861 28.7049 18.601 29.4872L20.054 28.1128ZM15.8475 26.32C14.2138 26.32 12.7964 26.9252 11.6508 28.1026L13.0842 29.4974C13.8586 28.7015 14.7612 28.32 15.8475 28.32V26.32ZM11.641 28.1128C10.49 29.3296 9.9675 30.9463 9.9675 32.84H11.9675C11.9675 31.3204 12.3783 30.2437 13.094 29.4872L11.641 28.1128ZM9.9675 32.84C9.9675 34.7337 10.49 36.3504 11.641 37.5672L13.094 36.1928C12.3783 35.4363 11.9675 34.3596 11.9675 32.84H9.9675ZM11.6508 37.5774C12.7964 38.7548 14.2138 39.36 15.8475 39.36V37.36C14.7612 37.36 13.8586 36.9785 13.0842 36.1826L11.6508 37.5774ZM15.8475 39.36C17.4812 39.36 18.8986 38.7548 20.0442 37.5774L18.6108 36.1826C17.8364 36.9785 16.9338 37.36 15.8475 37.36V39.36ZM20.0535 37.5677C21.2268 36.3292 21.7675 34.7024 21.7675 32.8H19.7675C19.7675 34.3109 19.3482 35.4041 18.6015 36.1923L20.0535 37.5677ZM52.2359 34.48V35.48H53.1272L53.2293 34.5946L52.2359 34.48ZM36.7559 34.48V33.48H35.6761L35.7589 34.5567L36.7559 34.48ZM38.0759 37.68L37.3813 38.3994L37.3939 38.4116L37.407 38.4233L38.0759 37.68ZM44.5559 36.6V35.6H43.9169L43.6485 36.1799L44.5559 36.6ZM51.8359 36.6L52.805 36.8467L53.1224 35.6H51.8359V36.6ZM49.7959 40.56L49.0305 39.9163L49.022 39.9268L49.7959 40.56ZM46.1559 43.32L46.5697 44.2304L46.1559 43.32ZM35.3959 42.92L34.9161 43.7974L35.3959 42.92ZM31.3959 38.92L32.2707 38.4355L31.3959 38.92ZM31.3559 26.76L30.4811 26.2755L30.4755 26.2859L31.3559 26.76ZM35.3559 22.76L35.8358 23.6374L35.3559 22.76ZM46.9959 22.72L46.521 23.6H46.521L46.9959 22.72ZM50.9159 26.6L50.0417 27.0857L50.0477 27.0961L50.9159 26.6ZM45.3559 30.68V31.68H46.3559V30.68H45.3559ZM44.1559 27.88L44.8109 27.1243L44.1559 27.88ZM38.2359 27.84L37.5958 27.0718L37.5893 27.0771L37.583 27.0826L38.2359 27.84ZM36.7959 30.68L35.8073 30.5296L35.6323 31.68H36.7959V30.68ZM51.3559 32.48C51.3559 33.0784 51.3185 33.7067 51.2425 34.3654L53.2293 34.5946C53.3133 33.8666 53.3559 33.1616 53.3559 32.48H51.3559ZM52.2359 33.48H36.7559V35.48H52.2359V33.48ZM35.7589 34.5567C35.8787 36.1139 36.3853 37.4377 37.3813 38.3994L38.7705 36.9606C38.22 36.429 37.8465 35.6195 37.753 34.4033L35.7589 34.5567ZM37.407 38.4233C38.4033 39.32 39.6199 39.76 40.9959 39.76V37.76C40.0787 37.76 39.3486 37.48 38.7449 36.9367L37.407 38.4233ZM40.9959 39.76C41.9903 39.76 42.9026 39.5494 43.6847 39.0749C44.4714 38.5976 45.0589 37.8938 45.4634 37.0201L43.6485 36.1799C43.3863 36.7462 43.0472 37.1224 42.6472 37.3651C42.2426 37.6106 41.7083 37.76 40.9959 37.76V39.76ZM44.5559 37.6H51.8359V35.6H44.5559V37.6ZM50.8668 36.3533C50.5312 37.6721 49.9216 38.8568 49.0306 39.9164L50.5613 41.2036C51.6436 39.9165 52.3941 38.4613 52.805 36.8467L50.8668 36.3533ZM49.022 39.9268C48.1652 40.9739 47.078 41.8024 45.7421 42.4096L46.5697 44.2304C48.1672 43.5043 49.5066 42.4928 50.5699 41.1932L49.022 39.9268ZM45.7421 42.4096C44.4208 43.0102 42.9245 43.32 41.2359 43.32V45.32C43.1741 45.32 44.9577 44.9631 46.5697 44.2304L45.7421 42.4096ZM41.2359 43.32C39.1958 43.32 37.4178 42.8859 35.8758 42.0426L34.9161 43.7974C36.7874 44.8207 38.9027 45.32 41.2359 45.32V43.32ZM35.8758 42.0426C34.3385 41.202 33.1407 40.0064 32.2707 38.4355L30.5211 39.4045C31.5711 41.3003 33.04 42.7714 34.9161 43.7974L35.8758 42.0426ZM32.2707 38.4355C31.4059 36.874 30.9559 35.0196 30.9559 32.84H28.9559C28.9559 35.3004 29.466 37.4994 30.5211 39.4045L32.2707 38.4355ZM30.9559 32.84C30.9559 30.6559 31.3944 28.7977 32.2364 27.2341L30.4755 26.2859C29.4508 28.1889 28.9559 30.3841 28.9559 32.84H30.9559ZM32.2307 27.2445C33.1007 25.6736 34.2985 24.478 35.8358 23.6374L34.8761 21.8826C33 22.9086 31.5311 24.3797 30.4811 26.2755L32.2307 27.2445ZM35.8358 23.6374C37.376 22.795 39.1669 22.36 41.2359 22.36V20.36C38.8783 20.36 36.7492 20.8583 34.8761 21.8826L35.8358 23.6374ZM41.2359 22.36C43.2522 22.36 45.0052 22.782 46.521 23.6L47.4709 21.84C45.6267 20.8447 43.5397 20.36 41.2359 20.36V22.36ZM46.521 23.6C48.0318 24.4154 49.2005 25.5713 50.0418 27.0856L51.7901 26.1144C50.7647 24.2687 49.3201 22.8379 47.4709 21.84L46.521 23.6ZM50.0477 27.0961C50.9086 28.6027 51.3559 30.3863 51.3559 32.48H53.3559C53.3559 30.0937 52.8433 27.9573 51.7842 26.1039L50.0477 27.0961ZM46.3559 30.68C46.3559 29.2519 45.8553 28.0295 44.8109 27.1243L43.501 28.6357C44.0565 29.1171 44.3559 29.7614 44.3559 30.68H46.3559ZM44.8109 27.1243C43.8047 26.2523 42.5623 25.84 41.1559 25.84V27.84C42.1496 27.84 42.9071 28.121 43.501 28.6357L44.8109 27.1243ZM41.1559 25.84C39.8006 25.84 38.594 26.2399 37.5958 27.0718L38.8761 28.6082C39.4779 28.1068 40.2179 27.84 41.1559 27.84V25.84ZM37.583 27.0826C36.5922 27.9368 36.0218 29.1199 35.8073 30.5296L37.7846 30.8304C37.9434 29.7868 38.333 29.0766 38.8889 28.5974L37.583 27.0826ZM36.7959 31.68H45.3559V29.68H36.7959V31.68ZM68.4044 38.2H69.4044V37.2H68.4044V38.2ZM68.4044 44V45H69.4044V44H68.4044ZM59.1244 42.2L58.4618 42.949L58.47 42.9562L59.1244 42.2ZM57.0444 27.36H58.0444V26.36H57.0444V27.36ZM54.3244 27.36H53.3244V28.36H54.3244V27.36ZM54.3244 21.68V20.68H53.3244V21.68H54.3244ZM57.0444 21.68V22.68H58.0444V21.68H57.0444ZM57.0444 16.24V15.24H56.0444V16.24H57.0444ZM63.8844 16.24H64.8844V15.24H63.8844V16.24ZM63.8844 21.68H62.8844V22.68H63.8844V21.68ZM68.3644 21.68H69.3644V20.68H68.3644V21.68ZM68.3644 27.36V28.36H69.3644V27.36H68.3644ZM63.8844 27.36V26.36H62.8844V27.36H63.8844ZM64.3644 37.76L63.6887 38.4972L64.3644 37.76ZM67.4044 38.2V44H69.4044V38.2H67.4044ZM68.4044 43H64.9244V45H68.4044V43ZM64.9244 43C62.5995 43 60.9282 42.4386 59.7788 41.4438L58.47 42.9562C60.0939 44.3614 62.2893 45 64.9244 45V43ZM59.7869 41.451C58.7013 40.4906 58.0444 38.8404 58.0444 36.24H56.0444C56.0444 39.1329 56.7742 41.4561 58.4618 42.949L59.7869 41.451ZM58.0444 36.24V27.36H56.0444V36.24H58.0444ZM57.0444 26.36H54.3244V28.36H57.0444V26.36ZM55.3244 27.36V21.68H53.3244V27.36H55.3244ZM54.3244 22.68H57.0444V20.68H54.3244V22.68ZM58.0444 21.68V16.24H56.0444V21.68H58.0444ZM57.0444 17.24H63.8844V15.24H57.0444V17.24ZM62.8844 16.24V21.68H64.8844V16.24H62.8844ZM63.8844 22.68H68.3644V20.68H63.8844V22.68ZM67.3644 21.68V27.36H69.3644V21.68H67.3644ZM68.3644 26.36H63.8844V28.36H68.3644V26.36ZM62.8844 27.36V36.32H64.8844V27.36H62.8844ZM62.8844 36.32C62.8844 37.118 63.0731 37.9329 63.6887 38.4972L65.0401 37.0228C65.0156 37.0004 64.8844 36.8554 64.8844 36.32H62.8844ZM63.6887 38.4972C64.2868 39.0455 65.1334 39.2 65.9644 39.2V37.2C65.302 37.2 65.0819 37.0612 65.0401 37.0228L63.6887 38.4972ZM65.9644 39.2H68.4044V37.2H65.9644V39.2ZM76.0944 43.32L76.496 42.4042L76.0944 43.32ZM72.4944 40.6L71.6943 41.2L71.7011 41.2088L72.4944 40.6ZM71.0144 36.68V35.68H69.9376L70.0171 36.7539L71.0144 36.68ZM77.7744 36.68L78.7691 36.5771L78.6763 35.68H77.7744V36.68ZM78.8544 38.56L79.4544 37.76L78.8544 38.56ZM83.1744 38.8L83.7511 39.617L83.7599 39.6107L83.1744 38.8ZM82.8944 36.08L82.4616 36.9815L82.4765 36.9887L82.4916 36.9953L82.8944 36.08ZM79.6544 35.04L79.8969 34.0699L79.8893 34.0679L79.8816 34.0662L79.6544 35.04ZM75.6544 33.88L75.283 34.8085L75.2931 34.8125L75.3033 34.8163L75.6544 33.88ZM72.8944 31.92L72.1335 32.5689L72.1383 32.5746L72.1432 32.5801L72.8944 31.92ZM72.7744 24.8L71.9455 24.2405L71.9423 24.2453L72.7744 24.8ZM75.8944 22.28L75.4899 21.3654L75.4833 21.3684L75.8944 22.28ZM87.4144 23.44L86.7594 24.1957L86.7656 24.201L87.4144 23.44ZM90.2144 28.96V29.96H91.3245L91.2089 28.8559L90.2144 28.96ZM83.8944 28.96L82.9038 29.0966L83.0228 29.96H83.8944V28.96ZM82.8544 27.12L82.2252 27.8972L82.234 27.9044L82.2429 27.9113L82.8544 27.12ZM78.7744 26.92L79.3409 27.744L79.3579 27.7324L79.3744 27.72L78.7744 26.92ZM79.1344 29.6L78.7016 30.5015L78.7085 30.5048L78.7153 30.508L79.1344 29.6ZM82.3344 30.56L82.5843 29.5917L82.5678 29.5875L82.5513 29.5838L82.3344 30.56ZM86.3744 31.84L85.9948 32.7652L86.0051 32.7694L86.0154 32.7733L86.3744 31.84ZM89.0944 33.84L88.3244 34.478L88.3343 34.49L88.3445 34.5016L89.0944 33.84ZM90.3344 37.52H91.3344V37.5114L91.3342 37.5028L90.3344 37.52ZM89.2144 41.04L88.402 40.4568L88.3992 40.4608L89.2144 41.04ZM86.0544 43.44L85.6647 42.519L85.6583 42.5218L86.0544 43.44ZM81.2944 43.32C79.4624 43.32 77.8694 43.0066 76.496 42.4042L75.6927 44.2358C77.3593 44.9668 79.2331 45.32 81.2944 45.32V43.32ZM76.496 42.4042C75.1072 41.7951 74.0507 40.9855 73.2877 39.9912L71.7011 41.2088C72.698 42.5079 74.0415 43.5116 75.6927 44.2358L76.496 42.4042ZM73.2944 40C72.5272 38.977 72.104 37.8523 72.0116 36.6061L70.0171 36.7539C70.1381 38.3876 70.7016 39.8763 71.6944 41.2L73.2944 40ZM71.0144 37.68H77.7744V35.68H71.0144V37.68ZM76.7797 36.7829C76.8893 37.8424 77.3987 38.7183 78.2544 39.36L79.4544 37.76C79.03 37.4417 78.8195 37.0642 78.7691 36.5771L76.7797 36.7829ZM78.2544 39.36C79.0952 39.9906 80.1021 40.28 81.2144 40.28V38.28C80.46 38.28 79.8936 38.0894 79.4544 37.76L78.2544 39.36ZM81.2144 40.28C82.1704 40.28 83.0604 40.1045 83.7511 39.617L82.5977 37.983C82.3817 38.1355 81.965 38.28 81.2144 38.28V40.28ZM83.7599 39.6107C84.4669 39.1 84.8944 38.3734 84.8944 37.48H82.8944C82.8944 37.6533 82.8418 37.8066 82.5889 37.9893L83.7599 39.6107ZM84.8944 37.48C84.8944 36.9768 84.7598 36.4912 84.4581 36.0688C84.1623 35.6546 83.7512 35.3645 83.2971 35.1647L82.4916 36.9953C82.7042 37.0888 82.7931 37.1787 82.8306 37.2312C82.8623 37.2755 82.8944 37.3432 82.8944 37.48H84.8944ZM83.3271 35.1785C82.564 34.8122 81.4013 34.446 79.8969 34.0699L79.4118 36.0101C80.8941 36.3807 81.8914 36.7078 82.4616 36.9815L83.3271 35.1785ZM79.8816 34.0662C78.307 33.6988 77.0184 33.3235 76.0055 32.9437L75.3033 34.8163C76.4237 35.2365 77.8017 35.6346 79.4271 36.0138L79.8816 34.0662ZM76.0258 32.9515C75.108 32.5844 74.3173 32.0243 73.6455 31.2599L72.1432 32.5801C73.0182 33.5757 74.0674 34.3223 75.283 34.8085L76.0258 32.9515ZM73.6552 31.2711C73.0749 30.5907 72.7344 29.6293 72.7344 28.28H70.7344C70.7344 29.9707 71.1672 31.436 72.1335 32.5689L73.6552 31.2711ZM72.7344 28.28C72.7344 27.1924 73.0254 26.2263 73.6064 25.3547L71.9423 24.2453C71.1367 25.4537 70.7344 26.8076 70.7344 28.28H72.7344ZM73.6032 25.3595C74.2037 24.4698 75.0873 23.741 76.3055 23.1916L75.4833 21.3684C73.9815 22.0457 72.785 22.9968 71.9455 24.2405L73.6032 25.3595ZM76.2989 23.1945C77.5306 22.6497 79.0268 22.36 80.8144 22.36V20.36C78.8153 20.36 77.0314 20.6836 75.4899 21.3655L76.2989 23.1945ZM80.8144 22.36C83.4525 22.36 85.393 23.0115 86.7594 24.1957L88.0693 22.6843C86.2357 21.0952 83.7763 20.36 80.8144 20.36V22.36ZM86.7656 24.201C88.1808 25.4074 89.0042 27.004 89.2198 29.0641L91.2089 28.8559C90.9445 26.3294 89.9013 24.246 88.0631 22.679L86.7656 24.201ZM90.2144 27.96H83.8944V29.96H90.2144V27.96ZM84.885 28.8234C84.7446 27.8058 84.2716 26.9513 83.4658 26.3287L82.2429 27.9113C82.6105 28.1953 82.8308 28.5675 82.9038 29.0966L84.885 28.8234ZM83.4836 26.3428C82.6987 25.7074 81.7082 25.44 80.6144 25.44V27.44C81.3872 27.44 81.89 27.6259 82.2252 27.8972L83.4836 26.3428ZM80.6144 25.44C79.7008 25.44 78.8415 25.6197 78.1744 26.12L79.3744 27.72C79.5606 27.5803 79.9279 27.44 80.6144 27.44V25.44ZM78.2078 26.096C77.5002 26.5824 77.1344 27.3092 77.1344 28.16H79.1344C79.1344 27.9441 79.1952 27.8442 79.3409 27.744L78.2078 26.096ZM77.1344 28.16C77.1344 28.6636 77.269 29.147 77.563 29.5704C77.8513 29.9855 78.253 30.2862 78.7016 30.5015L79.5671 28.6985C79.3491 28.5938 79.2508 28.4945 79.2057 28.4296C79.1665 28.373 79.1344 28.2964 79.1344 28.16H77.1344ZM78.7153 30.508C79.5083 30.8739 80.6595 31.2122 82.1174 31.5362L82.5513 29.5838C81.1292 29.2678 80.1471 28.966 79.5534 28.692L78.7153 30.508ZM82.0845 31.5283C83.7138 31.9487 85.0127 32.3622 85.9948 32.7652L86.7539 30.9148C85.6561 30.4644 84.2616 30.0246 82.5843 29.5917L82.0845 31.5283ZM86.0154 32.7733C86.8815 33.1065 87.6506 33.6648 88.3244 34.478L89.8644 33.202C88.9915 32.1485 87.9473 31.3735 86.7334 30.9067L86.0154 32.7733ZM88.3445 34.5016C88.9475 35.1849 89.3108 36.1603 89.3345 37.5372L91.3342 37.5028C91.3046 35.7864 90.8413 34.3084 89.8442 33.1784L88.3445 34.5016ZM89.3344 37.52C89.3344 38.622 89.024 39.5905 88.4021 40.4568L90.0267 41.6232C90.8981 40.4095 91.3344 39.0313 91.3344 37.52H89.3344ZM88.3992 40.4608C87.8073 41.2938 86.9168 41.9893 85.6647 42.519L86.444 44.361C87.9652 43.7174 89.1814 42.8129 90.0296 41.6192L88.3992 40.4608ZM85.6583 42.5218C84.4481 43.0438 83.0013 43.32 81.2944 43.32V45.32C83.2142 45.32 84.9407 45.0095 86.4505 44.3582L85.6583 42.5218ZM117.319 21.68L118.239 22.0714L118.831 20.68H117.319V21.68ZM103.319 54.6V55.6H103.98L104.239 54.9914L103.319 54.6ZM95.9591 54.6L95.0474 54.1891L94.4115 55.6H95.9591V54.6ZM101.079 43.24L101.991 43.6509L102.17 43.2535L102.001 42.8519L101.079 43.24ZM91.9991 21.68V20.68H90.4928L91.0775 22.0681L91.9991 21.68ZM99.6391 21.68L100.577 21.3333L100.336 20.68H99.6391V21.68ZM104.799 35.64L103.861 35.9867L104.803 38.5342L105.738 35.9843L104.799 35.64ZM109.919 21.68V20.68H109.221L108.98 21.3357L109.919 21.68ZM116.399 21.2886L102.399 54.2086L104.239 54.9914L118.239 22.0714L116.399 21.2886ZM103.319 53.6H95.9591V55.6H103.319V53.6ZM96.8707 55.0109L101.991 43.6509L100.167 42.8291L95.0474 54.1891L96.8707 55.0109ZM102.001 42.8519L92.9207 21.2919L91.0775 22.0681L100.157 43.6281L102.001 42.8519ZM91.9991 22.68H99.6391V20.68H91.9991V22.68ZM98.7011 22.0267L103.861 35.9867L105.737 35.2933L100.577 21.3333L98.7011 22.0267ZM105.738 35.9843L110.858 22.0243L108.98 21.3357L103.86 35.2957L105.738 35.9843ZM109.919 22.68H117.319V20.68H109.919V22.68Z" fill="black"/>
</g>
</g>
<defs>
<filter id="filter0_d_18_2653" x="-2.5" y="0" width="124" height="68" filterUnits="userSpaceOnUse" color-interpolation-filters="sRGB">
<feFlood flood-opacity="0" result="BackgroundImageFix"/>
<feColorMatrix in="SourceAlpha" type="matrix" values="0 0 0 0 0 0 0 0 0 0 0 0 0 0 0 0 0 0 127 0" result="hardAlpha"/>
<feOffset dy="4"/>
<feGaussianBlur stdDeviation="2"/>
<feComposite in2="hardAlpha" operator="out"/>
<feColorMatrix type="matrix" values="0 0 0 0 0 0 0 0 0 0 0 0 0 0 0 0 0 0 0.25 0"/>
<feBlend mode="normal" in2="BackgroundImageFix" result="effect1_dropShadow_18_2653"/>
<feBlend mode="normal" in="SourceGraphic" in2="effect1_dropShadow_18_2653" result="shape"/>
</filter>
<filter id="filter1_d_18_2653" x="0.167511" y="14.4" width="121.152" height="48.2" filterUnits="userSpaceOnUse" color-interpolation-filters="sRGB">
<feFlood flood-opacity="0" result="BackgroundImageFix"/>
<feColorMatrix in="SourceAlpha" type="matrix" values="0 0 0 0 0 0 0 0 0 0 0 0 0 0 0 0 0 0 127 0" result="hardAlpha"/>
<feOffset dy="4"/>
<feGaussianBlur stdDeviation="2"/>
<feComposite in2="hardAlpha" operator="out"/>
<feColorMatrix type="matrix" values="0 0 0 0 0 0 0 0 0 0 0 0 0 0 0 0 0 0 0.25 0"/>
<feBlend mode="normal" in2="BackgroundImageFix" result="effect1_dropShadow_18_2653"/>
<feBlend mode="normal" in="SourceGraphic" in2="effect1_dropShadow_18_2653" result="shape"/>
</filter>
<linearGradient id="paint0_linear_18_2653" x1="117.5" y1="15" x2="1.22292" y2="31.1094" gradientUnits="userSpaceOnUse">
<stop stop-color="#F6FA36"/>
<stop offset="1" stop-color="#F6FA36" stop-opacity="0"/>
</linearGradient>
</defs>
</svg>
