<svg width="114" height="41" viewBox="0 0 114 41" fill="none" xmlns="http://www.w3.org/2000/svg">
<path d="M7.0075 10.84C7.6475 9.8 8.5675 8.96 9.7675 8.32C10.9675 7.68 12.3408 7.36 13.8875 7.36C15.7275 7.36 17.3942 7.82667 18.8875 8.76C20.3808 9.69333 21.5542 11.0267 22.4075 12.76C23.2875 14.4933 23.7275 16.5067 23.7275 18.8C23.7275 21.0933 23.2875 23.12 22.4075 24.88C21.5542 26.6133 20.3808 27.96 18.8875 28.92C17.3942 29.8533 15.7275 30.32 13.8875 30.32C12.3142 30.32 10.9408 30.0133 9.7675 29.4C8.59417 28.76 7.67417 27.92 7.0075 26.88V30H0.1675V0.4H7.0075V10.84ZM16.7675 18.8C16.7675 17.0933 16.2875 15.76 15.3275 14.8C14.3942 13.8133 13.2342 13.32 11.8475 13.32C10.4875 13.32 9.3275 13.8133 8.3675 14.8C7.43417 15.7867 6.9675 17.1333 6.9675 18.84C6.9675 20.5467 7.43417 21.8933 8.3675 22.88C9.3275 23.8667 10.4875 24.36 11.8475 24.36C13.2075 24.36 14.3675 23.8667 15.3275 22.88C16.2875 21.8667 16.7675 20.5067 16.7675 18.8ZM48.3559 18.48C48.3559 19.12 48.3159 19.7867 48.2359 20.48H32.7559C32.8626 21.8667 33.3026 22.9333 34.0759 23.68C34.8759 24.4 35.8493 24.76 36.9959 24.76C38.7026 24.76 39.8893 24.04 40.5559 22.6H47.8359C47.4626 24.0667 46.7826 25.3867 45.7959 26.56C44.8359 27.7333 43.6226 28.6533 42.1559 29.32C40.6893 29.9867 39.0493 30.32 37.2359 30.32C35.0493 30.32 33.1026 29.8533 31.3959 28.92C29.6893 27.9867 28.3559 26.6533 27.3959 24.92C26.4359 23.1867 25.9559 21.16 25.9559 18.84C25.9559 16.52 26.4226 14.4933 27.3559 12.76C28.3159 11.0267 29.6493 9.69333 31.3559 8.76C33.0626 7.82667 35.0226 7.36 37.2359 7.36C39.3959 7.36 41.3159 7.81333 42.9959 8.72C44.6759 9.62667 45.9826 10.92 46.9159 12.6C47.8759 14.28 48.3559 16.24 48.3559 18.48ZM41.3559 16.68C41.3559 15.5067 40.9559 14.5733 40.1559 13.88C39.3559 13.1867 38.3559 12.84 37.1559 12.84C36.0093 12.84 35.0359 13.1733 34.2359 13.84C33.4626 14.5067 32.9826 15.4533 32.7959 16.68H41.3559ZM64.4044 24.2V30H60.9244C58.4444 30 56.511 29.4 55.1244 28.2C53.7377 26.9733 53.0444 24.9867 53.0444 22.24V13.36H50.3244V7.68H53.0444V2.24H59.8844V7.68H64.3644V13.36H59.8844V22.32C59.8844 22.9867 60.0444 23.4667 60.3644 23.76C60.6844 24.0533 61.2177 24.2 61.9644 24.2H64.4044ZM77.2944 30.32C75.3477 30.32 73.6144 29.9867 72.0944 29.32C70.5744 28.6533 69.3744 27.7467 68.4944 26.6C67.6144 25.4267 67.121 24.12 67.0144 22.68H73.7744C73.8544 23.4533 74.2144 24.08 74.8544 24.56C75.4944 25.04 76.281 25.28 77.2144 25.28C78.0677 25.28 78.721 25.12 79.1744 24.8C79.6544 24.4533 79.8944 24.0133 79.8944 23.48C79.8944 22.84 79.561 22.3733 78.8944 22.08C78.2277 21.76 77.1477 21.4133 75.6544 21.04C74.0544 20.6667 72.721 20.28 71.6544 19.88C70.5877 19.4533 69.6677 18.8 68.8944 17.92C68.121 17.0133 67.7344 15.8 67.7344 14.28C67.7344 13 68.081 11.84 68.7744 10.8C69.4944 9.73333 70.5344 8.89333 71.8944 8.28C73.281 7.66666 74.921 7.36 76.8144 7.36C79.6144 7.36 81.8144 8.05333 83.4144 9.44C85.041 10.8267 85.9744 12.6667 86.2144 14.96H79.8944C79.7877 14.1867 79.441 13.5733 78.8544 13.12C78.2944 12.6667 77.5477 12.44 76.6144 12.44C75.8144 12.44 75.201 12.6 74.7744 12.92C74.3477 13.2133 74.1344 13.6267 74.1344 14.16C74.1344 14.8 74.4677 15.28 75.1344 15.6C75.8277 15.92 76.8944 16.24 78.3344 16.56C79.9877 16.9867 81.3344 17.4133 82.3744 17.84C83.4144 18.24 84.321 18.9067 85.0944 19.84C85.8944 20.7467 86.3077 21.9733 86.3344 23.52C86.3344 24.8267 85.961 26 85.2144 27.04C84.4944 28.0533 83.441 28.8533 82.0544 29.44C80.6944 30.0267 79.1077 30.32 77.2944 30.32ZM113.319 7.68L99.3191 40.6H91.9591L97.0791 29.24L87.9991 7.68H95.6391L100.799 21.64L105.919 7.68H113.319Z" fill="#36D3CA"/>
<path d="M7.0075 10.84C7.6475 9.8 8.5675 8.96 9.7675 8.32C10.9675 7.68 12.3408 7.36 13.8875 7.36C15.7275 7.36 17.3942 7.82667 18.8875 8.76C20.3808 9.69333 21.5542 11.0267 22.4075 12.76C23.2875 14.4933 23.7275 16.5067 23.7275 18.8C23.7275 21.0933 23.2875 23.12 22.4075 24.88C21.5542 26.6133 20.3808 27.96 18.8875 28.92C17.3942 29.8533 15.7275 30.32 13.8875 30.32C12.3142 30.32 10.9408 30.0133 9.7675 29.4C8.59417 28.76 7.67417 27.92 7.0075 26.88V30H0.1675V0.4H7.0075V10.84ZM16.7675 18.8C16.7675 17.0933 16.2875 15.76 15.3275 14.8C14.3942 13.8133 13.2342 13.32 11.8475 13.32C10.4875 13.32 9.3275 13.8133 8.3675 14.8C7.43417 15.7867 6.9675 17.1333 6.9675 18.84C6.9675 20.5467 7.43417 21.8933 8.3675 22.88C9.3275 23.8667 10.4875 24.36 11.8475 24.36C13.2075 24.36 14.3675 23.8667 15.3275 22.88C16.2875 21.8667 16.7675 20.5067 16.7675 18.8ZM48.3559 18.48C48.3559 19.12 48.3159 19.7867 48.2359 20.48H32.7559C32.8626 21.8667 33.3026 22.9333 34.0759 23.68C34.8759 24.4 35.8493 24.76 36.9959 24.76C38.7026 24.76 39.8893 24.04 40.5559 22.6H47.8359C47.4626 24.0667 46.7826 25.3867 45.7959 26.56C44.8359 27.7333 43.6226 28.6533 42.1559 29.32C40.6893 29.9867 39.0493 30.32 37.2359 30.32C35.0493 30.32 33.1026 29.8533 31.3959 28.92C29.6893 27.9867 28.3559 26.6533 27.3959 24.92C26.4359 23.1867 25.9559 21.16 25.9559 18.84C25.9559 16.52 26.4226 14.4933 27.3559 12.76C28.3159 11.0267 29.6493 9.69333 31.3559 8.76C33.0626 7.82667 35.0226 7.36 37.2359 7.36C39.3959 7.36 41.3159 7.81333 42.9959 8.72C44.6759 9.62667 45.9826 10.92 46.9159 12.6C47.8759 14.28 48.3559 16.24 48.3559 18.48ZM41.3559 16.68C41.3559 15.5067 40.9559 14.5733 40.1559 13.88C39.3559 13.1867 38.3559 12.84 37.1559 12.84C36.0093 12.84 35.0359 13.1733 34.2359 13.84C33.4626 14.5067 32.9826 15.4533 32.7959 16.68H41.3559ZM64.4044 24.2V30H60.9244C58.4444 30 56.511 29.4 55.1244 28.2C53.7377 26.9733 53.0444 24.9867 53.0444 22.24V13.36H50.3244V7.68H53.0444V2.24H59.8844V7.68H64.3644V13.36H59.8844V22.32C59.8844 22.9867 60.0444 23.4667 60.3644 23.76C60.6844 24.0533 61.2177 24.2 61.9644 24.2H64.4044ZM77.2944 30.32C75.3477 30.32 73.6144 29.9867 72.0944 29.32C70.5744 28.6533 69.3744 27.7467 68.4944 26.6C67.6144 25.4267 67.121 24.12 67.0144 22.68H73.7744C73.8544 23.4533 74.2144 24.08 74.8544 24.56C75.4944 25.04 76.281 25.28 77.2144 25.28C78.0677 25.28 78.721 25.12 79.1744 24.8C79.6544 24.4533 79.8944 24.0133 79.8944 23.48C79.8944 22.84 79.561 22.3733 78.8944 22.08C78.2277 21.76 77.1477 21.4133 75.6544 21.04C74.0544 20.6667 72.721 20.28 71.6544 19.88C70.5877 19.4533 69.6677 18.8 68.8944 17.92C68.121 17.0133 67.7344 15.8 67.7344 14.28C67.7344 13 68.081 11.84 68.7744 10.8C69.4944 9.73333 70.5344 8.89333 71.8944 8.28C73.281 7.66666 74.921 7.36 76.8144 7.36C79.6144 7.36 81.8144 8.05333 83.4144 9.44C85.041 10.8267 85.9744 12.6667 86.2144 14.96H79.8944C79.7877 14.1867 79.441 13.5733 78.8544 13.12C78.2944 12.6667 77.5477 12.44 76.6144 12.44C75.8144 12.44 75.201 12.6 74.7744 12.92C74.3477 13.2133 74.1344 13.6267 74.1344 14.16C74.1344 14.8 74.4677 15.28 75.1344 15.6C75.8277 15.92 76.8944 16.24 78.3344 16.56C79.9877 16.9867 81.3344 17.4133 82.3744 17.84C83.4144 18.24 84.321 18.9067 85.0944 19.84C85.8944 20.7467 86.3077 21.9733 86.3344 23.52C86.3344 24.8267 85.961 26 85.2144 27.04C84.4944 28.0533 83.441 28.8533 82.0544 29.44C80.6944 30.0267 79.1077 30.32 77.2944 30.32ZM113.319 7.68L99.3191 40.6H91.9591L97.0791 29.24L87.9991 7.68H95.6391L100.799 21.64L105.919 7.68H113.319Z" fill="url(#paint0_linear_303_972)"/>
<defs>
<linearGradient id="paint0_linear_303_972" x1="-0.416161" y1="37.9231" x2="51.6176" y2="-46.32" gradientUnits="userSpaceOnUse">
<stop offset="0.440444" stop-color="#F6FA36" stop-opacity="0"/>
<stop offset="1" stop-color="#F6FA36" stop-opacity="0.6"/>
</linearGradient>
</defs>
</svg>
