<svg xmlns="http://www.w3.org/2000/svg" width="32" height="32" viewBox="0 0 32 32" fill="none">
  <g clip-path="url(#clip0_396_4458)">
    <path d="M23.5333 8.46683C21.6 6.5335 18.9467 5.3335 16 5.3335C10.1067 5.3335 5.34668 10.1068 5.34668 16.0002C5.34668 21.8935 10.1067 26.6668 16 26.6668C20.9733 26.6668 25.12 23.2668 26.3067 18.6668H23.5333C22.44 21.7735 19.48 24.0002 16 24.0002C11.5867 24.0002 8.00001 20.4135 8.00001 16.0002C8.00001 11.5868 11.5867 8.00016 16 8.00016C18.2133 8.00016 20.1867 8.92016 21.6267 10.3735L17.3333 14.6668H26.6667V5.3335L23.5333 8.46683Z" fill="white" fill-opacity="0.2"/>
  </g>
  <defs>
    <clipPath id="clip0_396_4458">
      <rect width="32" height="32" fill="white"/>
    </clipPath>
  </defs>
</svg>