<svg xmlns="http://www.w3.org/2000/svg" width="32" height="32" viewBox="0 0 32 32" fill="none">
  <path d="M8.14284 25.8569L8.14315 25.8552L9.07091 20.5098C9.07099 20.5094 9.07107 20.509 9.07115 20.5085C9.19352 19.8046 8.94822 19.1067 8.45408 18.6306L8.45247 18.629L4.51113 14.8423L4.50942 14.8407C4.19791 14.5424 4.09068 14.1144 4.22118 13.7087L4.22151 13.7076C4.35419 13.2942 4.69789 13.0004 5.14243 12.937L5.14449 12.9367L10.5926 12.1517C11.2747 12.0553 11.8888 11.6333 12.2069 10.9922L14.6412 6.12628C14.6412 6.12617 14.6413 6.12606 14.6413 6.12595C14.6413 6.1259 14.6414 6.12584 14.6414 6.12578C14.8343 5.74098 15.2189 5.5 15.6666 5.5C16.1144 5.5 16.4991 5.74116 16.692 6.12622C16.692 6.12624 16.692 6.12626 16.692 6.12628L19.127 10.9896C19.1275 10.9905 19.1279 10.9915 19.1284 10.9924C19.4438 11.6256 20.0507 12.0539 20.7403 12.1517C20.7414 12.1518 20.7426 12.152 20.7438 12.1522L26.1887 12.9367L26.1907 12.937C26.6353 13.0004 26.979 13.2942 27.1116 13.7076L27.112 13.7087C27.242 14.1128 27.1351 14.5412 26.8224 14.8407L26.8207 14.8423L22.8794 18.629L22.8777 18.6305C22.3796 19.1106 22.14 19.8107 22.2624 20.5092C22.2624 20.5095 22.2625 20.5099 22.2625 20.5102L23.1912 25.8547C23.2643 26.2763 23.0997 26.6853 22.7503 26.9404L22.7475 26.9424C22.3895 27.2049 21.9345 27.241 21.5347 27.0326L21.5314 27.0309L16.6607 24.5069L16.66 24.5065C16.0369 24.1841 15.2949 24.1841 14.6719 24.5065L14.6708 24.507L9.80014 27.0323L9.79797 27.0335C9.62314 27.1245 9.4408 27.1667 9.26258 27.1667C9.02981 27.1667 8.79326 27.0943 8.58257 26.9411C8.23252 26.684 8.06982 26.2747 8.14284 25.8569Z" stroke="#36D3CA" stroke-width="3"/>
  <path d="M8.14284 25.8569L8.14315 25.8552L9.07091 20.5098C9.07099 20.5094 9.07107 20.509 9.07115 20.5085C9.19352 19.8046 8.94822 19.1067 8.45408 18.6306L8.45247 18.629L4.51113 14.8423L4.50942 14.8407C4.19791 14.5424 4.09068 14.1144 4.22118 13.7087L4.22151 13.7076C4.35419 13.2942 4.69789 13.0004 5.14243 12.937L5.14449 12.9367L10.5926 12.1517C11.2747 12.0553 11.8888 11.6333 12.2069 10.9922L14.6412 6.12628C14.6412 6.12617 14.6413 6.12606 14.6413 6.12595C14.6413 6.1259 14.6414 6.12584 14.6414 6.12578C14.8343 5.74098 15.2189 5.5 15.6666 5.5C16.1144 5.5 16.4991 5.74116 16.692 6.12622C16.692 6.12624 16.692 6.12626 16.692 6.12628L19.127 10.9896C19.1275 10.9905 19.1279 10.9915 19.1284 10.9924C19.4438 11.6256 20.0507 12.0539 20.7403 12.1517C20.7414 12.1518 20.7426 12.152 20.7438 12.1522L26.1887 12.9367L26.1907 12.937C26.6353 13.0004 26.979 13.2942 27.1116 13.7076L27.112 13.7087C27.242 14.1128 27.1351 14.5412 26.8224 14.8407L26.8207 14.8423L22.8794 18.629L22.8777 18.6305C22.3796 19.1106 22.14 19.8107 22.2624 20.5092C22.2624 20.5095 22.2625 20.5099 22.2625 20.5102L23.1912 25.8547C23.2643 26.2763 23.0997 26.6853 22.7503 26.9404L22.7475 26.9424C22.3895 27.2049 21.9345 27.241 21.5347 27.0326L21.5314 27.0309L16.6607 24.5069L16.66 24.5065C16.0369 24.1841 15.2949 24.1841 14.6719 24.5065L14.6708 24.507L9.80014 27.0323L9.79797 27.0335C9.62314 27.1245 9.4408 27.1667 9.26258 27.1667C9.02981 27.1667 8.79326 27.0943 8.58257 26.9411C8.23252 26.684 8.06982 26.2747 8.14284 25.8569Z" stroke="url(#paint0_linear_18_2659)" stroke-opacity="0.3" stroke-width="3"/>
  <defs>
    <linearGradient id="paint0_linear_18_2659" x1="23.5" y1="10.5" x2="6.50001" y2="28" gradientUnits="userSpaceOnUse">
      <stop stop-color="#F6FA36"/>
      <stop offset="1" stop-color="#F6FA36" stop-opacity="0"/>
    </linearGradient>
  </defs>
</svg>