<svg xmlns="http://www.w3.org/2000/svg" width="28" height="27" viewBox="0 0 28 27" fill="none">
  <path fill-rule="evenodd" clip-rule="evenodd" d="M0.867177 12.7831L5.11177 16.8426C5.26972 16.9941 5.34295 17.2099 5.30562 17.4229L4.30621 23.1548C4.12098 24.2097 4.54745 25.2574 5.41762 25.892C5.92163 26.258 6.51036 26.4438 7.10339 26.4438C7.55427 26.4438 8.00659 26.3366 8.42588 26.1193L13.6713 23.4121C13.8766 23.3063 14.1222 23.3063 14.3275 23.4121L19.573 26.1179C20.5479 26.6239 21.6981 26.5367 22.5812 25.892C23.4528 25.2588 23.8793 24.2111 23.6955 23.1548L22.6947 17.4215C22.6573 17.2099 22.7291 16.9941 22.8871 16.8426L27.1317 12.7831C27.9128 12.0384 28.1942 10.9377 27.864 9.91571C27.5308 8.88226 26.6492 8.14326 25.5622 7.98888L19.6921 7.14697C19.4667 7.11553 19.2728 6.97687 19.1738 6.77819L16.5489 1.55947C16.065 0.597487 15.0886 0 14.0001 0C12.9117 0 11.9353 0.597487 11.4514 1.55947L8.82794 6.77962C8.7303 6.97687 8.53501 7.11553 8.30813 7.14697L2.43808 7.98888C1.35108 8.14326 0.469427 8.88226 0.136292 9.91571C-0.19397 10.9377 0.086035 12.0384 0.867177 12.7831ZM8.76456 10.3309L3.72259 11.054L7.35362 14.5267C8.25999 15.3961 8.7151 16.6765 8.48885 17.9729C8.48881 17.9731 8.48889 17.9727 8.48885 17.9729C8.48873 17.9736 8.48848 17.975 8.48835 17.9757L7.62833 22.9082L12.1864 20.5557C13.323 19.9702 14.6758 19.9702 15.8124 20.5557L20.3732 22.9084L19.5126 17.9779C19.5123 17.9766 19.5121 17.9753 19.5119 17.974C19.2864 16.6884 19.7306 15.404 20.6452 14.5267L20.6487 14.5233L24.2764 11.0538L19.2438 10.332C19.2407 10.3316 19.2377 10.3311 19.2347 10.3307C17.976 10.1521 16.8639 9.37315 16.2835 8.21554L14.0003 3.67597L11.72 8.21338C11.1325 9.38975 10.0061 10.1552 8.76456 10.3309Z" fill="#FFD53F"/>
</svg>