<svg xmlns="http://www.w3.org/2000/svg" width="48" height="48" viewBox="0 0 48 48" fill="none">
  <g clip-path="url(#clip0_18_3081)">
    <path fill-rule="evenodd" clip-rule="evenodd" d="M30.674 35H28.7031C27.5742 34.9722 26.7035 34.0471 26.7035 32.8941V29.6043C26.7035 29.2097 26.389 28.8888 26.0028 28.8888H23.0464C22.6684 28.891 22.356 29.2129 22.356 29.6043V32.8835C22.356 32.9637 22.3457 33.0407 22.3242 33.1134C22.2136 34.1722 21.3469 35 20.2969 35H18.326C15.9402 35 14 32.9904 14 30.5209V21.2012C14.0102 20.1381 14.4794 19.1649 15.2897 18.5243L21.9841 12.9147C23.4582 11.6955 25.5121 11.6955 26.9831 12.9126L33.7257 18.5275C34.5175 19.1574 34.9867 20.1285 35 21.1788V30.5209C35 32.9904 33.0598 35 30.674 35Z" stroke="white" stroke-width="2"/>
  </g>
  <defs>
    <clipPath id="clip0_18_3081">
      <rect width="48" height="48" fill="white"/>
    </clipPath>
  </defs>
</svg>