<svg xmlns="http://www.w3.org/2000/svg" width="48" height="48" viewBox="0 0 48 48" fill="none">
  <path fill-rule="evenodd" clip-rule="evenodd" d="M11.4117 22.8235C11.4117 18.1779 15.1778 14.4118 19.8235 14.4118C24.4692 14.4118 28.2353 18.1779 28.2353 22.8235C28.2353 25.0948 27.3351 27.1558 25.8721 28.6693C25.8342 28.6977 25.7979 28.7291 25.7635 28.7635C25.729 28.7979 25.6976 28.8342 25.6693 28.8721C24.1558 30.3351 22.0948 31.2353 19.8235 31.2353C15.1778 31.2353 11.4117 27.4692 11.4117 22.8235ZM26.4448 30.8591C24.6453 32.3436 22.3385 33.2353 19.8235 33.2353C14.0733 33.2353 9.41174 28.5738 9.41174 22.8235C9.41174 17.0733 14.0733 12.4118 19.8235 12.4118C25.5738 12.4118 30.2353 17.0733 30.2353 22.8235C30.2353 25.3386 29.3436 27.6453 27.859 29.4448L32.2953 33.8811C32.6859 34.2717 32.6859 34.9048 32.2953 35.2954C31.9048 35.6859 31.2716 35.6859 30.8811 35.2954L26.4448 30.8591Z" fill="white"/>
</svg>